<svg width="24" height="20" viewBox="0 0 24 20" fill="none" xmlns="http://www.w3.org/2000/svg">
<path fill-rule="evenodd" clip-rule="evenodd" d="M11.0954 0.270316C11.4721 -0.0263813 12.0012 -0.0326518 12.3848 0.255036L22.8268 8.08654C23.2942 8.4371 23.3889 9.10019 23.0384 9.56759C22.6878 10.035 22.0247 10.1297 21.5573 9.77917L11.7659 2.43558L2.46255 9.76389C2.00358 10.1254 1.33844 10.0464 0.976903 9.58747C0.615369 9.1285 0.694356 8.46335 1.15332 8.10182L11.0954 0.270316ZM12.5831 5.09919L18.9705 9.87585C19.3593 10.1536 19.5815 10.5424 19.5815 10.9867V18.3183C19.5815 19.0959 18.9705 19.7069 18.1929 19.7069H5.30702C4.52943 19.7069 3.91846 19.0959 3.91846 18.3183V10.9867C3.91846 10.5424 4.14063 10.1536 4.47388 9.87585L10.9168 5.09919C11.4167 4.71039 12.0832 4.71039 12.5831 5.09919ZM13.5829 18.3183C13.805 18.3183 13.9717 18.1517 13.9717 17.9295H14.0272V12.7641C14.0272 12.3753 13.694 12.042 13.3052 12.042H10.1948C9.80597 12.042 9.47272 12.3753 9.47272 12.7641V17.9295C9.47272 18.1517 9.63934 18.3183 9.86152 18.3183H13.5829Z" fill="#0E5561"/>
</svg>
