<svg width="14" height="20" viewBox="0 0 14 20" fill="none" xmlns="http://www.w3.org/2000/svg">
<path fill-rule="evenodd" clip-rule="evenodd" d="M7.34203 0.454705C3.35472 0.287572 0.0996094 3.38351 0.0996094 7.26736C0.0996094 7.66529 0.155321 8.05527 0.211032 8.4532C0.322454 9.24112 0.608966 9.97332 0.951191 10.5941L1.11832 10.8727L5.1693 17.5102L6.14027 19.086C6.5382 19.7068 7.45345 19.7068 7.85139 19.086L12.8654 10.9284L12.9848 10.6976C12.9848 10.6657 13.0007 10.6578 13.0166 10.6418C13.0325 10.6259 13.0484 10.61 13.0484 10.5861C13.6215 9.57538 13.9 8.44524 13.9 7.21165C13.9 3.66206 10.9314 0.621838 7.34203 0.454705ZM7.43753 10.4588C7.16694 10.6259 6.83267 10.6259 6.56208 10.4588C5.6707 9.90965 3.72082 8.53279 3.72082 6.93309C3.72082 6.56699 3.85612 6.20885 4.1108 5.93029C4.36547 5.65174 4.7077 5.45277 5.09768 5.38114C5.48765 5.30951 5.88559 5.36523 6.23577 5.53236C6.58595 5.69949 6.85655 5.986 7.00777 6.32027C7.15898 5.986 7.42958 5.70745 7.77976 5.53236C8.12994 5.35727 8.52788 5.30951 8.91785 5.38114C9.30783 5.45277 9.65006 5.64378 9.90473 5.93029C10.1594 6.21681 10.2868 6.56699 10.2947 6.93309C10.2788 8.53279 8.32891 9.90965 7.43753 10.4588Z" fill="#1C1C1C"/>
</svg>
