<svg width="20" height="20" viewBox="0 0 20 20" fill="none" xmlns="http://www.w3.org/2000/svg">
<path fill-rule="evenodd" clip-rule="evenodd" d="M9.90371 3.97513C9.90371 3.97513 11.0678 3.6922 11.6924 2.37659C12.2887 1.11756 11.7634 0 11.7634 0C11.7634 0 10.5709 0.31122 9.9605 1.57025C9.35006 2.88586 9.90371 3.97513 9.90371 3.97513ZM9.77816 17.6147C9.62835 17.6847 9.47306 17.7447 9.31249 17.7939C6.60723 18.6228 3.42602 16.0924 2.20706 12.1421C0.988101 8.19181 2.19298 4.31748 4.89824 3.48856C6.53532 2.98694 8.34669 3.7155 9.79204 5.24448C11.236 3.72167 13.0434 2.99697 14.6773 3.4976C17.3825 4.32652 18.5874 8.20085 17.3685 12.1512C16.1495 16.1015 12.9683 18.6318 10.263 17.8029C10.0956 17.7516 9.93389 17.6886 9.77816 17.6147ZM16.0959 11.7003C15.1934 14.7202 12.8546 16.6504 10.859 16.0201C10.5921 15.9414 10.3505 15.8101 10.1345 15.6525V6.88151C11.253 5.41093 12.7656 4.66251 14.113 5.0958C16.1086 5.72605 16.9984 8.69348 16.0959 11.7003Z" fill="#1C1C1C"/>
</svg>
