<svg width="119" height="152" viewBox="0 0 119 152" fill="none" xmlns="http://www.w3.org/2000/svg">
<rect width="119" height="152" rx="16" fill="#0E5561"/>
<path d="M21.44 103.176C22.0587 103.379 22.5493 103.72 22.912 104.2C23.2747 104.669 23.456 105.256 23.456 105.96C23.456 106.931 23.0827 107.683 22.336 108.216C21.5893 108.739 20.5013 109 19.072 109H13.504V97.8H18.752C20.0747 97.8 21.0933 98.0613 21.808 98.584C22.5227 99.096 22.88 99.8053 22.88 100.712C22.88 101.267 22.752 101.757 22.496 102.184C22.24 102.611 21.888 102.941 21.44 103.176ZM15.584 99.432V102.52H18.528C19.2533 102.52 19.808 102.392 20.192 102.136C20.5867 101.869 20.784 101.485 20.784 100.984C20.784 100.472 20.5867 100.088 20.192 99.832C19.808 99.5653 19.2533 99.432 18.528 99.432H15.584ZM18.944 107.368C20.5547 107.368 21.36 106.829 21.36 105.752C21.36 104.675 20.5547 104.136 18.944 104.136H15.584V107.368H18.944ZM33.5159 104.776C33.5159 104.915 33.5052 105.112 33.4839 105.368H26.7799C26.8972 105.997 27.2012 106.499 27.6919 106.872C28.1932 107.235 28.8119 107.416 29.5479 107.416C30.4865 107.416 31.2599 107.107 31.8679 106.488L32.9399 107.72C32.5559 108.179 32.0705 108.525 31.4839 108.76C30.8972 108.995 30.2359 109.112 29.4999 109.112C28.5612 109.112 27.7345 108.925 27.0199 108.552C26.3052 108.179 25.7505 107.661 25.3559 107C24.9719 106.328 24.7799 105.571 24.7799 104.728C24.7799 103.896 24.9665 103.149 25.3399 102.488C25.7239 101.816 26.2519 101.293 26.9239 100.92C27.5959 100.547 28.3532 100.36 29.1959 100.36C30.0279 100.36 30.7692 100.547 31.4199 100.92C32.0812 101.283 32.5932 101.8 32.9559 102.472C33.3292 103.133 33.5159 103.901 33.5159 104.776ZM29.1959 101.96C28.5559 101.96 28.0119 102.152 27.5639 102.536C27.1265 102.909 26.8599 103.411 26.7639 104.04H31.6119C31.5265 103.421 31.2652 102.92 30.8279 102.536C30.3905 102.152 29.8465 101.96 29.1959 101.96ZM39.357 109.112C38.4717 109.112 37.677 108.925 36.973 108.552C36.269 108.179 35.7197 107.661 35.325 107C34.9303 106.328 34.733 105.571 34.733 104.728C34.733 103.885 34.9303 103.133 35.325 102.472C35.7197 101.811 36.2637 101.293 36.957 100.92C37.661 100.547 38.461 100.36 39.357 100.36C40.1997 100.36 40.9357 100.531 41.565 100.872C42.205 101.213 42.685 101.704 43.005 102.344L41.469 103.24C41.2237 102.845 40.9143 102.552 40.541 102.36C40.1783 102.157 39.7783 102.056 39.341 102.056C38.5943 102.056 37.9757 102.301 37.485 102.792C36.9943 103.272 36.749 103.917 36.749 104.728C36.749 105.539 36.989 106.189 37.469 106.68C37.9597 107.16 38.5837 107.4 39.341 107.4C39.7783 107.4 40.1783 107.304 40.541 107.112C40.9143 106.909 41.2237 106.611 41.469 106.216L43.005 107.112C42.6743 107.752 42.189 108.248 41.549 108.6C40.9197 108.941 40.189 109.112 39.357 109.112ZM48.4489 109.112C47.5849 109.112 46.8062 108.925 46.1129 108.552C45.4195 108.179 44.8755 107.661 44.4809 107C44.0969 106.328 43.9049 105.571 43.9049 104.728C43.9049 103.885 44.0969 103.133 44.4809 102.472C44.8755 101.811 45.4195 101.293 46.1129 100.92C46.8062 100.547 47.5849 100.36 48.4489 100.36C49.3235 100.36 50.1075 100.547 50.8009 100.92C51.4942 101.293 52.0329 101.811 52.4169 102.472C52.8115 103.133 53.0089 103.885 53.0089 104.728C53.0089 105.571 52.8115 106.328 52.4169 107C52.0329 107.661 51.4942 108.179 50.8009 108.552C50.1075 108.925 49.3235 109.112 48.4489 109.112ZM48.4489 107.4C49.1849 107.4 49.7929 107.155 50.2729 106.664C50.7529 106.173 50.9929 105.528 50.9929 104.728C50.9929 103.928 50.7529 103.283 50.2729 102.792C49.7929 102.301 49.1849 102.056 48.4489 102.056C47.7129 102.056 47.1049 102.301 46.6249 102.792C46.1555 103.283 45.9209 103.928 45.9209 104.728C45.9209 105.528 46.1555 106.173 46.6249 106.664C47.1049 107.155 47.7129 107.4 48.4489 107.4ZM65.7054 100.36C66.7827 100.36 67.636 100.675 68.2654 101.304C68.8947 101.923 69.2094 102.856 69.2094 104.104V109H67.2094V104.36C67.2094 103.613 67.044 103.053 66.7134 102.68C66.3827 102.296 65.908 102.104 65.2894 102.104C64.6174 102.104 64.0787 102.328 63.6734 102.776C63.268 103.213 63.0654 103.843 63.0654 104.664V109H61.0654V104.36C61.0654 103.613 60.9 103.053 60.5694 102.68C60.2387 102.296 59.764 102.104 59.1454 102.104C58.4627 102.104 57.9187 102.323 57.5134 102.76C57.1187 103.197 56.9214 103.832 56.9214 104.664V109H54.9214V100.456H56.8254V101.544C57.1454 101.16 57.5454 100.867 58.0254 100.664C58.5054 100.461 59.0387 100.36 59.6254 100.36C60.2654 100.36 60.8307 100.483 61.3214 100.728C61.8227 100.963 62.2174 101.315 62.5054 101.784C62.8574 101.336 63.3107 100.989 63.8654 100.744C64.42 100.488 65.0334 100.36 65.7054 100.36ZM79.8753 104.776C79.8753 104.915 79.8646 105.112 79.8433 105.368H73.1393C73.2566 105.997 73.5606 106.499 74.0513 106.872C74.5526 107.235 75.1713 107.416 75.9073 107.416C76.8459 107.416 77.6193 107.107 78.2273 106.488L79.2993 107.72C78.9153 108.179 78.4299 108.525 77.8433 108.76C77.2566 108.995 76.5953 109.112 75.8593 109.112C74.9206 109.112 74.0939 108.925 73.3793 108.552C72.6646 108.179 72.1099 107.661 71.7153 107C71.3313 106.328 71.1393 105.571 71.1393 104.728C71.1393 103.896 71.3259 103.149 71.6993 102.488C72.0833 101.816 72.6113 101.293 73.2833 100.92C73.9553 100.547 74.7126 100.36 75.5553 100.36C76.3873 100.36 77.1286 100.547 77.7793 100.92C78.4406 101.283 78.9526 101.8 79.3153 102.472C79.6886 103.133 79.8753 103.901 79.8753 104.776ZM75.5553 101.96C74.9153 101.96 74.3713 102.152 73.9233 102.536C73.4859 102.909 73.2193 103.411 73.1233 104.04H77.9713C77.8859 103.421 77.6246 102.92 77.1873 102.536C76.7499 102.152 76.2059 101.96 75.5553 101.96ZM20.9979 122.36C22.2565 122.36 23.2165 122.664 23.8779 123.272C24.5499 123.869 24.8859 124.776 24.8859 125.992V131H22.9979V129.96C22.7525 130.333 22.4005 130.621 21.9419 130.824C21.4939 131.016 20.9499 131.112 20.3099 131.112C19.6699 131.112 19.1099 131.005 18.6299 130.792C18.1499 130.568 17.7765 130.264 17.5099 129.88C17.2539 129.485 17.1259 129.043 17.1259 128.552C17.1259 127.784 17.4085 127.171 17.9739 126.712C18.5499 126.243 19.4512 126.008 20.6779 126.008H22.8859V125.88C22.8859 125.283 22.7045 124.824 22.3419 124.504C21.9899 124.184 21.4619 124.024 20.7579 124.024C20.2779 124.024 19.8032 124.099 19.3339 124.248C18.8752 124.397 18.4859 124.605 18.1659 124.872L17.3819 123.416C17.8299 123.075 18.3685 122.813 18.9979 122.632C19.6272 122.451 20.2939 122.36 20.9979 122.36ZM20.7259 129.656C21.2272 129.656 21.6699 129.544 22.0539 129.32C22.4485 129.085 22.7259 128.755 22.8859 128.328V127.336H20.8219C19.6699 127.336 19.0939 127.715 19.0939 128.472C19.0939 128.835 19.2379 129.123 19.5259 129.336C19.8139 129.549 20.2139 129.656 20.7259 129.656Z" fill="white"/>
<path d="M42.0185 119.8V131H39.9385V126.2H34.1465V131H32.0665V119.8H34.1465V124.424H39.9385V119.8H42.0185ZM48.6676 131.112C47.8036 131.112 47.025 130.925 46.3316 130.552C45.6383 130.179 45.0943 129.661 44.6996 129C44.3156 128.328 44.1236 127.571 44.1236 126.728C44.1236 125.885 44.3156 125.133 44.6996 124.472C45.0943 123.811 45.6383 123.293 46.3316 122.92C47.025 122.547 47.8036 122.36 48.6676 122.36C49.5423 122.36 50.3263 122.547 51.0196 122.92C51.713 123.293 52.2516 123.811 52.6356 124.472C53.0303 125.133 53.2276 125.885 53.2276 126.728C53.2276 127.571 53.0303 128.328 52.6356 129C52.2516 129.661 51.713 130.179 51.0196 130.552C50.3263 130.925 49.5423 131.112 48.6676 131.112ZM48.6676 129.4C49.4036 129.4 50.0116 129.155 50.4916 128.664C50.9716 128.173 51.2116 127.528 51.2116 126.728C51.2116 125.928 50.9716 125.283 50.4916 124.792C50.0116 124.301 49.4036 124.056 48.6676 124.056C47.9316 124.056 47.3236 124.301 46.8436 124.792C46.3743 125.283 46.1396 125.928 46.1396 126.728C46.1396 127.528 46.3743 128.173 46.8436 128.664C47.3236 129.155 47.9316 129.4 48.6676 129.4ZM57.7801 131.112C57.0868 131.112 56.4095 131.021 55.7481 130.84C55.0868 130.659 54.5588 130.429 54.1641 130.152L54.9321 128.632C55.3161 128.888 55.7748 129.096 56.3081 129.256C56.8521 129.405 57.3855 129.48 57.9081 129.48C59.1028 129.48 59.7001 129.165 59.7001 128.536C59.7001 128.237 59.5455 128.029 59.2361 127.912C58.9375 127.795 58.4521 127.683 57.7801 127.576C57.0761 127.469 56.5001 127.347 56.0521 127.208C55.6148 127.069 55.2308 126.829 54.9001 126.488C54.5801 126.136 54.4201 125.651 54.4201 125.032C54.4201 124.221 54.7561 123.576 55.4281 123.096C56.1108 122.605 57.0281 122.36 58.1801 122.36C58.7668 122.36 59.3535 122.429 59.9401 122.568C60.5268 122.696 61.0068 122.872 61.3801 123.096L60.6121 124.616C59.8868 124.189 59.0708 123.976 58.1641 123.976C57.5775 123.976 57.1295 124.067 56.8201 124.248C56.5215 124.419 56.3721 124.648 56.3721 124.936C56.3721 125.256 56.5321 125.485 56.8521 125.624C57.1828 125.752 57.6895 125.875 58.3721 125.992C59.0548 126.099 59.6148 126.221 60.0521 126.36C60.4895 126.499 60.8628 126.733 61.1721 127.064C61.4921 127.395 61.6521 127.864 61.6521 128.472C61.6521 129.272 61.3055 129.912 60.6121 130.392C59.9188 130.872 58.9748 131.112 57.7801 131.112ZM68.5105 130.536C68.2758 130.728 67.9878 130.872 67.6465 130.968C67.3158 131.064 66.9638 131.112 66.5905 131.112C65.6518 131.112 64.9265 130.867 64.4145 130.376C63.9025 129.885 63.6465 129.171 63.6465 128.232V124.12H62.2385V122.52H63.6465V120.568H65.6465V122.52H67.9345V124.12H65.6465V128.184C65.6465 128.6 65.7478 128.92 65.9505 129.144C66.1532 129.357 66.4465 129.464 66.8305 129.464C67.2785 129.464 67.6518 129.347 67.9505 129.112L68.5105 130.536Z" fill="#FABC5A"/>
<rect width="38" height="38" rx="19" transform="matrix(-1 0 0 1 54 16)" fill="white"/>
<g clip-path="url(#clip0_1352_28749)">
<path fill-rule="evenodd" clip-rule="evenodd" d="M39.5782 33.7544C38.4282 33.7544 37.496 34.6867 37.496 35.8367V36.4374C37.496 37.5874 38.4282 38.5197 39.5782 38.5197C40.7283 38.5197 41.6605 37.5874 41.6605 36.4374V35.8367C41.6605 34.6867 40.7283 33.7544 39.5782 33.7544ZM36.963 42.3197H39.5776H39.5789H42.1935C42.6567 42.3197 43.0041 41.9732 43.0041 41.5401V40.7029C43.0041 40.01 42.4251 39.4325 41.7302 39.4325H39.5789H39.5776H37.4263C36.7314 39.4325 36.1523 40.01 36.1523 40.7029V41.5401C36.1523 41.9732 36.4998 42.3197 36.963 42.3197Z" fill="#1C1C1C"/>
<path fill-rule="evenodd" clip-rule="evenodd" d="M34.1048 41.0842C34.3152 41.0842 34.4859 40.9136 34.4859 40.7031C34.4859 39.7365 34.9605 38.8766 35.6861 38.3408C35.9462 38.1488 36.0714 37.8045 35.9805 37.4943C35.8822 37.1591 35.8295 36.8045 35.8295 36.4376V35.8369C35.8295 33.7664 37.508 32.0879 39.5784 32.0879C39.8901 32.0879 40.1508 31.7977 40.0652 31.498L39.477 29.4395C39.4147 29.2241 39.2843 29.0346 39.1052 28.8996C38.9262 28.7645 38.7082 28.6912 38.4839 28.6904H28.9348C28.7106 28.6912 28.4926 28.7645 28.3135 28.8996C28.1345 29.0346 28.004 29.2241 27.9417 29.4395L27.016 32.6798C27.0154 32.6817 27.015 32.6836 27.0147 32.6854L27.0136 32.6903C27.0101 32.7035 27.007 32.7169 27.0046 32.7306C27.0034 32.7372 27.0025 32.7438 27.0016 32.7505C27 32.7621 26.9987 32.7738 26.9979 32.7857C26.9974 32.7934 26.9969 32.801 26.9968 32.8087C26.9967 32.8107 26.9966 32.8126 26.9964 32.8145C26.9963 32.8169 26.9961 32.8192 26.9961 32.8217V33.8545C26.9961 34.2551 27.0895 34.6503 27.2687 35.0086C27.448 35.3669 27.7083 35.6785 28.0289 35.9187V40.0514C28.0292 40.3252 28.1381 40.5877 28.3318 40.7813C28.5254 40.975 28.7879 41.0839 29.0617 41.0842H34.1048ZM31.1273 33.3381H28.0289V33.8545C28.0291 34.1143 28.0945 34.3698 28.2193 34.5977C28.3441 34.8255 28.5242 35.0183 28.743 35.1583C28.7849 35.1758 28.8242 35.1988 28.86 35.2266C29.0961 35.3504 29.3601 35.4111 29.6265 35.403C29.8929 35.3948 30.1527 35.3181 30.3807 35.1801C30.6087 35.0421 30.7973 34.8475 30.9281 34.6153C31.0589 34.3831 31.1275 34.121 31.1273 33.8545V33.3381ZM34.8048 34.95C35.0954 34.6594 35.2586 34.2654 35.2586 33.8545V33.3381H32.1602V33.8545C32.1602 34.2654 32.3234 34.6594 32.6139 34.95C32.9045 35.2405 33.2985 35.4037 33.7094 35.4037C34.1203 35.4037 34.5143 35.2405 34.8048 34.95Z" fill="#1C1C1C"/>
</g>
<defs>
<clipPath id="clip0_1352_28749">
<rect width="20" height="20" fill="white" transform="translate(25 25)"/>
</clipPath>
</defs>
</svg>
