<svg width="119" height="152" viewBox="0 0 119 152" fill="none" xmlns="http://www.w3.org/2000/svg">
<rect width="119" height="152" rx="16" fill="#0E5561"/>
<path d="M21.44 103.176C22.0587 103.379 22.5493 103.72 22.912 104.2C23.2747 104.669 23.456 105.256 23.456 105.96C23.456 106.931 23.0827 107.683 22.336 108.216C21.5893 108.739 20.5013 109 19.072 109H13.504V97.8H18.752C20.0747 97.8 21.0933 98.0613 21.808 98.584C22.5227 99.096 22.88 99.8053 22.88 100.712C22.88 101.267 22.752 101.757 22.496 102.184C22.24 102.611 21.888 102.941 21.44 103.176ZM15.584 99.432V102.52H18.528C19.2533 102.52 19.808 102.392 20.192 102.136C20.5867 101.869 20.784 101.485 20.784 100.984C20.784 100.472 20.5867 100.088 20.192 99.832C19.808 99.5653 19.2533 99.432 18.528 99.432H15.584ZM18.944 107.368C20.5547 107.368 21.36 106.829 21.36 105.752C21.36 104.675 20.5547 104.136 18.944 104.136H15.584V107.368H18.944ZM33.5159 104.776C33.5159 104.915 33.5052 105.112 33.4839 105.368H26.7799C26.8972 105.997 27.2012 106.499 27.6919 106.872C28.1932 107.235 28.8119 107.416 29.5479 107.416C30.4865 107.416 31.2599 107.107 31.8679 106.488L32.9399 107.72C32.5559 108.179 32.0705 108.525 31.4839 108.76C30.8972 108.995 30.2359 109.112 29.4999 109.112C28.5612 109.112 27.7345 108.925 27.0199 108.552C26.3052 108.179 25.7505 107.661 25.3559 107C24.9719 106.328 24.7799 105.571 24.7799 104.728C24.7799 103.896 24.9665 103.149 25.3399 102.488C25.7239 101.816 26.2519 101.293 26.9239 100.92C27.5959 100.547 28.3532 100.36 29.1959 100.36C30.0279 100.36 30.7692 100.547 31.4199 100.92C32.0812 101.283 32.5932 101.8 32.9559 102.472C33.3292 103.133 33.5159 103.901 33.5159 104.776ZM29.1959 101.96C28.5559 101.96 28.0119 102.152 27.5639 102.536C27.1265 102.909 26.8599 103.411 26.7639 104.04H31.6119C31.5265 103.421 31.2652 102.92 30.8279 102.536C30.3905 102.152 29.8465 101.96 29.1959 101.96ZM39.357 109.112C38.4717 109.112 37.677 108.925 36.973 108.552C36.269 108.179 35.7197 107.661 35.325 107C34.9303 106.328 34.733 105.571 34.733 104.728C34.733 103.885 34.9303 103.133 35.325 102.472C35.7197 101.811 36.2637 101.293 36.957 100.92C37.661 100.547 38.461 100.36 39.357 100.36C40.1997 100.36 40.9357 100.531 41.565 100.872C42.205 101.213 42.685 101.704 43.005 102.344L41.469 103.24C41.2237 102.845 40.9143 102.552 40.541 102.36C40.1783 102.157 39.7783 102.056 39.341 102.056C38.5943 102.056 37.9757 102.301 37.485 102.792C36.9943 103.272 36.749 103.917 36.749 104.728C36.749 105.539 36.989 106.189 37.469 106.68C37.9597 107.16 38.5837 107.4 39.341 107.4C39.7783 107.4 40.1783 107.304 40.541 107.112C40.9143 106.909 41.2237 106.611 41.469 106.216L43.005 107.112C42.6743 107.752 42.189 108.248 41.549 108.6C40.9197 108.941 40.189 109.112 39.357 109.112ZM48.4489 109.112C47.5849 109.112 46.8062 108.925 46.1129 108.552C45.4195 108.179 44.8755 107.661 44.4809 107C44.0969 106.328 43.9049 105.571 43.9049 104.728C43.9049 103.885 44.0969 103.133 44.4809 102.472C44.8755 101.811 45.4195 101.293 46.1129 100.92C46.8062 100.547 47.5849 100.36 48.4489 100.36C49.3235 100.36 50.1075 100.547 50.8009 100.92C51.4942 101.293 52.0329 101.811 52.4169 102.472C52.8115 103.133 53.0089 103.885 53.0089 104.728C53.0089 105.571 52.8115 106.328 52.4169 107C52.0329 107.661 51.4942 108.179 50.8009 108.552C50.1075 108.925 49.3235 109.112 48.4489 109.112ZM48.4489 107.4C49.1849 107.4 49.7929 107.155 50.2729 106.664C50.7529 106.173 50.9929 105.528 50.9929 104.728C50.9929 103.928 50.7529 103.283 50.2729 102.792C49.7929 102.301 49.1849 102.056 48.4489 102.056C47.7129 102.056 47.1049 102.301 46.6249 102.792C46.1555 103.283 45.9209 103.928 45.9209 104.728C45.9209 105.528 46.1555 106.173 46.6249 106.664C47.1049 107.155 47.7129 107.4 48.4489 107.4ZM65.7054 100.36C66.7827 100.36 67.636 100.675 68.2654 101.304C68.8947 101.923 69.2094 102.856 69.2094 104.104V109H67.2094V104.36C67.2094 103.613 67.044 103.053 66.7134 102.68C66.3827 102.296 65.908 102.104 65.2894 102.104C64.6174 102.104 64.0787 102.328 63.6734 102.776C63.268 103.213 63.0654 103.843 63.0654 104.664V109H61.0654V104.36C61.0654 103.613 60.9 103.053 60.5694 102.68C60.2387 102.296 59.764 102.104 59.1454 102.104C58.4627 102.104 57.9187 102.323 57.5134 102.76C57.1187 103.197 56.9214 103.832 56.9214 104.664V109H54.9214V100.456H56.8254V101.544C57.1454 101.16 57.5454 100.867 58.0254 100.664C58.5054 100.461 59.0387 100.36 59.6254 100.36C60.2654 100.36 60.8307 100.483 61.3214 100.728C61.8227 100.963 62.2174 101.315 62.5054 101.784C62.8574 101.336 63.3107 100.989 63.8654 100.744C64.42 100.488 65.0334 100.36 65.7054 100.36ZM79.8753 104.776C79.8753 104.915 79.8646 105.112 79.8433 105.368H73.1393C73.2566 105.997 73.5606 106.499 74.0513 106.872C74.5526 107.235 75.1713 107.416 75.9073 107.416C76.8459 107.416 77.6193 107.107 78.2273 106.488L79.2993 107.72C78.9153 108.179 78.4299 108.525 77.8433 108.76C77.2566 108.995 76.5953 109.112 75.8593 109.112C74.9206 109.112 74.0939 108.925 73.3793 108.552C72.6646 108.179 72.1099 107.661 71.7153 107C71.3313 106.328 71.1393 105.571 71.1393 104.728C71.1393 103.896 71.3259 103.149 71.6993 102.488C72.0833 101.816 72.6113 101.293 73.2833 100.92C73.9553 100.547 74.7126 100.36 75.5553 100.36C76.3873 100.36 77.1286 100.547 77.7793 100.92C78.4406 101.283 78.9526 101.8 79.3153 102.472C79.6886 103.133 79.8753 103.901 79.8753 104.776ZM75.5553 101.96C74.9153 101.96 74.3713 102.152 73.9233 102.536C73.4859 102.909 73.2193 103.411 73.1233 104.04H77.9713C77.8859 103.421 77.6246 102.92 77.1873 102.536C76.7499 102.152 76.2059 101.96 75.5553 101.96ZM20.9979 122.36C22.2565 122.36 23.2165 122.664 23.8779 123.272C24.5499 123.869 24.8859 124.776 24.8859 125.992V131H22.9979V129.96C22.7525 130.333 22.4005 130.621 21.9419 130.824C21.4939 131.016 20.9499 131.112 20.3099 131.112C19.6699 131.112 19.1099 131.005 18.6299 130.792C18.1499 130.568 17.7765 130.264 17.5099 129.88C17.2539 129.485 17.1259 129.043 17.1259 128.552C17.1259 127.784 17.4085 127.171 17.9739 126.712C18.5499 126.243 19.4512 126.008 20.6779 126.008H22.8859V125.88C22.8859 125.283 22.7045 124.824 22.3419 124.504C21.9899 124.184 21.4619 124.024 20.7579 124.024C20.2779 124.024 19.8032 124.099 19.3339 124.248C18.8752 124.397 18.4859 124.605 18.1659 124.872L17.3819 123.416C17.8299 123.075 18.3685 122.813 18.9979 122.632C19.6272 122.451 20.2939 122.36 20.9979 122.36ZM20.7259 129.656C21.2272 129.656 21.6699 129.544 22.0539 129.32C22.4485 129.085 22.7259 128.755 22.8859 128.328V127.336H20.8219C19.6699 127.336 19.0939 127.715 19.0939 128.472C19.0939 128.835 19.2379 129.123 19.5259 129.336C19.8139 129.549 20.2139 129.656 20.7259 129.656Z" fill="white"/>
<path d="M32.0665 119.8H36.9625C38.1572 119.8 39.2185 120.035 40.1465 120.504C41.0745 120.963 41.7945 121.619 42.3065 122.472C42.8185 123.315 43.0745 124.291 43.0745 125.4C43.0745 126.509 42.8185 127.491 42.3065 128.344C41.7945 129.187 41.0745 129.843 40.1465 130.312C39.2185 130.771 38.1572 131 36.9625 131H32.0665V119.8ZM36.8665 129.24C37.6878 129.24 38.4078 129.085 39.0265 128.776C39.6558 128.456 40.1358 128.008 40.4665 127.432C40.8078 126.845 40.9785 126.168 40.9785 125.4C40.9785 124.632 40.8078 123.96 40.4665 123.384C40.1358 122.797 39.6558 122.349 39.0265 122.04C38.4078 121.72 37.6878 121.56 36.8665 121.56H34.1465V129.24H36.8665ZM48.9333 131.112C48.0693 131.112 47.2906 130.925 46.5973 130.552C45.9039 130.179 45.3599 129.661 44.9653 129C44.5813 128.328 44.3893 127.571 44.3893 126.728C44.3893 125.885 44.5813 125.133 44.9653 124.472C45.3599 123.811 45.9039 123.293 46.5973 122.92C47.2906 122.547 48.0693 122.36 48.9333 122.36C49.8079 122.36 50.5919 122.547 51.2853 122.92C51.9786 123.293 52.5173 123.811 52.9013 124.472C53.2959 125.133 53.4933 125.885 53.4933 126.728C53.4933 127.571 53.2959 128.328 52.9013 129C52.5173 129.661 51.9786 130.179 51.2853 130.552C50.5919 130.925 49.8079 131.112 48.9333 131.112ZM48.9333 129.4C49.6693 129.4 50.2773 129.155 50.7573 128.664C51.2373 128.173 51.4773 127.528 51.4773 126.728C51.4773 125.928 51.2373 125.283 50.7573 124.792C50.2773 124.301 49.6693 124.056 48.9333 124.056C48.1973 124.056 47.5893 124.301 47.1093 124.792C46.6399 125.283 46.4053 125.928 46.4053 126.728C46.4053 127.528 46.6399 128.173 47.1093 128.664C47.5893 129.155 48.1973 129.4 48.9333 129.4ZM59.3258 131.112C58.4404 131.112 57.6458 130.925 56.9418 130.552C56.2378 130.179 55.6884 129.661 55.2938 129C54.8991 128.328 54.7018 127.571 54.7018 126.728C54.7018 125.885 54.8991 125.133 55.2938 124.472C55.6884 123.811 56.2324 123.293 56.9258 122.92C57.6298 122.547 58.4298 122.36 59.3258 122.36C60.1684 122.36 60.9044 122.531 61.5338 122.872C62.1738 123.213 62.6538 123.704 62.9738 124.344L61.4378 125.24C61.1924 124.845 60.8831 124.552 60.5098 124.36C60.1471 124.157 59.7471 124.056 59.3098 124.056C58.5631 124.056 57.9444 124.301 57.4538 124.792C56.9631 125.272 56.7178 125.917 56.7178 126.728C56.7178 127.539 56.9578 128.189 57.4378 128.68C57.9284 129.16 58.5524 129.4 59.3098 129.4C59.7471 129.4 60.1471 129.304 60.5098 129.112C60.8831 128.909 61.1924 128.611 61.4378 128.216L62.9738 129.112C62.6431 129.752 62.1578 130.248 61.5178 130.6C60.8884 130.941 60.1578 131.112 59.3258 131.112ZM69.948 130.536C69.7133 130.728 69.4253 130.872 69.084 130.968C68.7533 131.064 68.4013 131.112 68.028 131.112C67.0893 131.112 66.364 130.867 65.852 130.376C65.34 129.885 65.084 129.171 65.084 128.232V124.12H63.676V122.52H65.084V120.568H67.084V122.52H69.372V124.12H67.084V128.184C67.084 128.6 67.1853 128.92 67.388 129.144C67.5907 129.357 67.884 129.464 68.268 129.464C68.716 129.464 69.0893 129.347 69.388 129.112L69.948 130.536ZM75.152 131.112C74.288 131.112 73.5093 130.925 72.816 130.552C72.1227 130.179 71.5787 129.661 71.184 129C70.8 128.328 70.608 127.571 70.608 126.728C70.608 125.885 70.8 125.133 71.184 124.472C71.5787 123.811 72.1227 123.293 72.816 122.92C73.5093 122.547 74.288 122.36 75.152 122.36C76.0267 122.36 76.8107 122.547 77.504 122.92C78.1973 123.293 78.736 123.811 79.12 124.472C79.5147 125.133 79.712 125.885 79.712 126.728C79.712 127.571 79.5147 128.328 79.12 129C78.736 129.661 78.1973 130.179 77.504 130.552C76.8107 130.925 76.0267 131.112 75.152 131.112ZM75.152 129.4C75.888 129.4 76.496 129.155 76.976 128.664C77.456 128.173 77.696 127.528 77.696 126.728C77.696 125.928 77.456 125.283 76.976 124.792C76.496 124.301 75.888 124.056 75.152 124.056C74.416 124.056 73.808 124.301 73.328 124.792C72.8587 125.283 72.624 125.928 72.624 126.728C72.624 127.528 72.8587 128.173 73.328 128.664C73.808 129.155 74.416 129.4 75.152 129.4ZM83.5285 123.704C84.1045 122.808 85.1178 122.36 86.5685 122.36V124.264C86.3978 124.232 86.2432 124.216 86.1045 124.216C85.3258 124.216 84.7178 124.445 84.2805 124.904C83.8432 125.352 83.6245 126.003 83.6245 126.856V131H81.6245V122.456H83.5285V123.704Z" fill="#FABC5A"/>
<rect width="38" height="38" rx="19" transform="matrix(-1 0 0 1 54 16)" fill="white"/>
<path fill-rule="evenodd" clip-rule="evenodd" d="M38.9132 31.3062V27.6692C38.9132 26.7731 38.1203 25.9824 37.2217 25.9824H33.0457C32.0942 25.9824 31.3013 26.7731 31.3013 27.6692V31.3062C31.3013 31.6225 31.5656 31.886 31.8828 31.886H38.3318C38.6489 31.886 38.9132 31.6225 38.9132 31.3062ZM35.1074 26.8885C35.5677 26.8885 35.9408 27.2616 35.9408 27.7218V28.101H36.323C36.7832 28.101 37.1563 28.474 37.1563 28.9343C37.1563 29.3945 36.7832 29.7676 36.323 29.7676H35.9408V30.1465C35.9408 30.6068 35.5677 30.9799 35.1074 30.9799C34.6472 30.9799 34.2741 30.6068 34.2741 30.1465V29.7676H33.8914C33.4312 29.7676 33.0581 29.3945 33.0581 28.9343C33.0581 28.474 33.4312 28.101 33.8914 28.101H34.2741V27.7218C34.2741 27.2616 34.6472 26.8885 35.1074 26.8885ZM38.4375 33.4185C38.7018 33.4185 38.9133 33.6821 38.8604 33.9456C38.5961 35.7905 37.0103 37.2137 35.1073 37.2137C33.2043 37.2137 31.5656 35.7905 31.3542 33.9456C31.3013 33.6821 31.5128 33.4185 31.7771 33.4185H38.4375ZM35.1052 44.0173H30.3317C29.4859 44.0173 28.8516 43.3847 28.8516 42.5941V41.0655C28.8516 39.8004 29.9088 38.7462 31.1774 38.7462H35.1052H35.1074H39.0352C40.3038 38.7462 41.361 39.8004 41.361 41.0655V42.5941C41.361 43.3847 40.7267 44.0173 39.8809 44.0173H35.1074H35.1052Z" fill="#1C1C1C"/>
</svg>
