<svg width="119" height="152" viewBox="0 0 119 152" fill="none" xmlns="http://www.w3.org/2000/svg">
<rect width="119" height="152" rx="16" fill="#0E5561"/>
<rect width="38" height="38" rx="19" transform="matrix(-1 0 0 1 54 16)" fill="white"/>
<path fill-rule="evenodd" clip-rule="evenodd" d="M31.8814 25.743C30.8833 25.8764 30.1135 26.7312 30.1135 27.7657C30.1135 27.9993 30.1527 28.2236 30.2249 28.4326L31.0961 32.017C31.1869 32.3905 31.5215 32.6535 31.9059 32.6535H34.7265H35.1511H37.9717C38.3561 32.6535 38.6907 32.3905 38.7815 32.017L39.6516 28.4372C39.7248 28.2269 39.7646 28.0009 39.7646 27.7657C39.7646 26.7727 39.0554 25.9454 38.1159 25.7626L37.8234 28.1027C37.7663 28.5594 37.3498 28.8833 36.8931 28.8263C36.4364 28.7692 36.1125 28.3527 36.1696 27.896L36.4474 25.6731C36.0778 25.3011 35.5657 25.0708 34.9999 25.0708C34.434 25.0708 33.9219 25.3011 33.5523 25.6731L33.8301 27.896C33.8872 28.3527 33.5633 28.7692 33.1066 28.8263C32.6499 28.8833 32.2334 28.5594 32.1763 28.1027L31.8814 25.743ZM38.754 34.8578C38.8068 34.5943 38.5954 34.3307 38.3311 34.3307H31.6706C31.4063 34.3307 31.1949 34.5943 31.2478 34.8578C31.4592 36.7027 33.0979 38.1259 35.0009 38.1259C36.9038 38.1259 38.4897 36.7027 38.754 34.8578ZM30.2252 44.9294H34.9987H35.001H39.7745C40.6203 44.9294 41.2546 44.2969 41.2546 43.5062V41.9776C41.2546 40.7126 40.1974 39.6584 38.9287 39.6584H35.001H34.9987H31.071C29.8023 39.6584 28.7451 40.7126 28.7451 41.9776V43.5062C28.7451 44.2969 29.3794 44.9294 30.2252 44.9294Z" fill="#1C1C1C"/>
<path d="M21.44 103.176C22.0587 103.379 22.5493 103.72 22.912 104.2C23.2747 104.669 23.456 105.256 23.456 105.96C23.456 106.931 23.0827 107.683 22.336 108.216C21.5893 108.739 20.5013 109 19.072 109H13.504V97.8H18.752C20.0747 97.8 21.0933 98.0613 21.808 98.584C22.5227 99.096 22.88 99.8053 22.88 100.712C22.88 101.267 22.752 101.757 22.496 102.184C22.24 102.611 21.888 102.941 21.44 103.176ZM15.584 99.432V102.52H18.528C19.2533 102.52 19.808 102.392 20.192 102.136C20.5867 101.869 20.784 101.485 20.784 100.984C20.784 100.472 20.5867 100.088 20.192 99.832C19.808 99.5653 19.2533 99.432 18.528 99.432H15.584ZM18.944 107.368C20.5547 107.368 21.36 106.829 21.36 105.752C21.36 104.675 20.5547 104.136 18.944 104.136H15.584V107.368H18.944ZM33.5159 104.776C33.5159 104.915 33.5052 105.112 33.4839 105.368H26.7799C26.8972 105.997 27.2012 106.499 27.6919 106.872C28.1932 107.235 28.8119 107.416 29.5479 107.416C30.4865 107.416 31.2599 107.107 31.8679 106.488L32.9399 107.72C32.5559 108.179 32.0705 108.525 31.4839 108.76C30.8972 108.995 30.2359 109.112 29.4999 109.112C28.5612 109.112 27.7345 108.925 27.0199 108.552C26.3052 108.179 25.7505 107.661 25.3559 107C24.9719 106.328 24.7799 105.571 24.7799 104.728C24.7799 103.896 24.9665 103.149 25.3399 102.488C25.7239 101.816 26.2519 101.293 26.9239 100.92C27.5959 100.547 28.3532 100.36 29.1959 100.36C30.0279 100.36 30.7692 100.547 31.4199 100.92C32.0812 101.283 32.5932 101.8 32.9559 102.472C33.3292 103.133 33.5159 103.901 33.5159 104.776ZM29.1959 101.96C28.5559 101.96 28.0119 102.152 27.5639 102.536C27.1265 102.909 26.8599 103.411 26.7639 104.04H31.6119C31.5265 103.421 31.2652 102.92 30.8279 102.536C30.3905 102.152 29.8465 101.96 29.1959 101.96ZM39.357 109.112C38.4717 109.112 37.677 108.925 36.973 108.552C36.269 108.179 35.7197 107.661 35.325 107C34.9303 106.328 34.733 105.571 34.733 104.728C34.733 103.885 34.9303 103.133 35.325 102.472C35.7197 101.811 36.2637 101.293 36.957 100.92C37.661 100.547 38.461 100.36 39.357 100.36C40.1997 100.36 40.9357 100.531 41.565 100.872C42.205 101.213 42.685 101.704 43.005 102.344L41.469 103.24C41.2237 102.845 40.9143 102.552 40.541 102.36C40.1783 102.157 39.7783 102.056 39.341 102.056C38.5943 102.056 37.9757 102.301 37.485 102.792C36.9943 103.272 36.749 103.917 36.749 104.728C36.749 105.539 36.989 106.189 37.469 106.68C37.9597 107.16 38.5837 107.4 39.341 107.4C39.7783 107.4 40.1783 107.304 40.541 107.112C40.9143 106.909 41.2237 106.611 41.469 106.216L43.005 107.112C42.6743 107.752 42.189 108.248 41.549 108.6C40.9197 108.941 40.189 109.112 39.357 109.112ZM48.4489 109.112C47.5849 109.112 46.8062 108.925 46.1129 108.552C45.4195 108.179 44.8755 107.661 44.4809 107C44.0969 106.328 43.9049 105.571 43.9049 104.728C43.9049 103.885 44.0969 103.133 44.4809 102.472C44.8755 101.811 45.4195 101.293 46.1129 100.92C46.8062 100.547 47.5849 100.36 48.4489 100.36C49.3235 100.36 50.1075 100.547 50.8009 100.92C51.4942 101.293 52.0329 101.811 52.4169 102.472C52.8115 103.133 53.0089 103.885 53.0089 104.728C53.0089 105.571 52.8115 106.328 52.4169 107C52.0329 107.661 51.4942 108.179 50.8009 108.552C50.1075 108.925 49.3235 109.112 48.4489 109.112ZM48.4489 107.4C49.1849 107.4 49.7929 107.155 50.2729 106.664C50.7529 106.173 50.9929 105.528 50.9929 104.728C50.9929 103.928 50.7529 103.283 50.2729 102.792C49.7929 102.301 49.1849 102.056 48.4489 102.056C47.7129 102.056 47.1049 102.301 46.6249 102.792C46.1555 103.283 45.9209 103.928 45.9209 104.728C45.9209 105.528 46.1555 106.173 46.6249 106.664C47.1049 107.155 47.7129 107.4 48.4489 107.4ZM65.7054 100.36C66.7827 100.36 67.636 100.675 68.2654 101.304C68.8947 101.923 69.2094 102.856 69.2094 104.104V109H67.2094V104.36C67.2094 103.613 67.044 103.053 66.7134 102.68C66.3827 102.296 65.908 102.104 65.2894 102.104C64.6174 102.104 64.0787 102.328 63.6734 102.776C63.268 103.213 63.0654 103.843 63.0654 104.664V109H61.0654V104.36C61.0654 103.613 60.9 103.053 60.5694 102.68C60.2387 102.296 59.764 102.104 59.1454 102.104C58.4627 102.104 57.9187 102.323 57.5134 102.76C57.1187 103.197 56.9214 103.832 56.9214 104.664V109H54.9214V100.456H56.8254V101.544C57.1454 101.16 57.5454 100.867 58.0254 100.664C58.5054 100.461 59.0387 100.36 59.6254 100.36C60.2654 100.36 60.8307 100.483 61.3214 100.728C61.8227 100.963 62.2174 101.315 62.5054 101.784C62.8574 101.336 63.3107 100.989 63.8654 100.744C64.42 100.488 65.0334 100.36 65.7054 100.36ZM79.8753 104.776C79.8753 104.915 79.8646 105.112 79.8433 105.368H73.1393C73.2566 105.997 73.5606 106.499 74.0513 106.872C74.5526 107.235 75.1713 107.416 75.9073 107.416C76.8459 107.416 77.6193 107.107 78.2273 106.488L79.2993 107.72C78.9153 108.179 78.4299 108.525 77.8433 108.76C77.2566 108.995 76.5953 109.112 75.8593 109.112C74.9206 109.112 74.0939 108.925 73.3793 108.552C72.6646 108.179 72.1099 107.661 71.7153 107C71.3313 106.328 71.1393 105.571 71.1393 104.728C71.1393 103.896 71.3259 103.149 71.6993 102.488C72.0833 101.816 72.6113 101.293 73.2833 100.92C73.9553 100.547 74.7126 100.36 75.5553 100.36C76.3873 100.36 77.1286 100.547 77.7793 100.92C78.4406 101.283 78.9526 101.8 79.3153 102.472C79.6886 103.133 79.8753 103.901 79.8753 104.776ZM75.5553 101.96C74.9153 101.96 74.3713 102.152 73.9233 102.536C73.4859 102.909 73.2193 103.411 73.1233 104.04H77.9713C77.8859 103.421 77.6246 102.92 77.1873 102.536C76.7499 102.152 76.2059 101.96 75.5553 101.96ZM20.9979 122.36C22.2565 122.36 23.2165 122.664 23.8779 123.272C24.5499 123.869 24.8859 124.776 24.8859 125.992V131H22.9979V129.96C22.7525 130.333 22.4005 130.621 21.9419 130.824C21.4939 131.016 20.9499 131.112 20.3099 131.112C19.6699 131.112 19.1099 131.005 18.6299 130.792C18.1499 130.568 17.7765 130.264 17.5099 129.88C17.2539 129.485 17.1259 129.043 17.1259 128.552C17.1259 127.784 17.4085 127.171 17.9739 126.712C18.5499 126.243 19.4512 126.008 20.6779 126.008H22.8859V125.88C22.8859 125.283 22.7045 124.824 22.3419 124.504C21.9899 124.184 21.4619 124.024 20.7579 124.024C20.2779 124.024 19.8032 124.099 19.3339 124.248C18.8752 124.397 18.4859 124.605 18.1659 124.872L17.3819 123.416C17.8299 123.075 18.3685 122.813 18.9979 122.632C19.6272 122.451 20.2939 122.36 20.9979 122.36ZM20.7259 129.656C21.2272 129.656 21.6699 129.544 22.0539 129.32C22.4485 129.085 22.7259 128.755 22.8859 128.328V127.336H20.8219C19.6699 127.336 19.0939 127.715 19.0939 128.472C19.0939 128.835 19.2379 129.123 19.5259 129.336C19.8139 129.549 20.2139 129.656 20.7259 129.656Z" fill="white"/>
<path d="M37.2505 131.16C36.1198 131.16 35.0958 130.915 34.1785 130.424C33.2718 129.923 32.5572 129.235 32.0345 128.36C31.5225 127.485 31.2665 126.499 31.2665 125.4C31.2665 124.301 31.5278 123.315 32.0505 122.44C32.5732 121.565 33.2878 120.883 34.1945 120.392C35.1118 119.891 36.1358 119.64 37.2665 119.64C38.1838 119.64 39.0212 119.8 39.7785 120.12C40.5358 120.44 41.1758 120.904 41.6985 121.512L40.3545 122.776C39.5438 121.901 38.5465 121.464 37.3625 121.464C36.5945 121.464 35.9065 121.635 35.2985 121.976C34.6905 122.307 34.2158 122.771 33.8745 123.368C33.5332 123.965 33.3625 124.643 33.3625 125.4C33.3625 126.157 33.5332 126.835 33.8745 127.432C34.2158 128.029 34.6905 128.499 35.2985 128.84C35.9065 129.171 36.5945 129.336 37.3625 129.336C38.5465 129.336 39.5438 128.893 40.3545 128.008L41.6985 129.288C41.1758 129.896 40.5305 130.36 39.7625 130.68C39.0052 131 38.1678 131.16 37.2505 131.16ZM47.027 131.112C46.163 131.112 45.3843 130.925 44.691 130.552C43.9977 130.179 43.4537 129.661 43.059 129C42.675 128.328 42.483 127.571 42.483 126.728C42.483 125.885 42.675 125.133 43.059 124.472C43.4537 123.811 43.9977 123.293 44.691 122.92C45.3843 122.547 46.163 122.36 47.027 122.36C47.9017 122.36 48.6857 122.547 49.379 122.92C50.0723 123.293 50.611 123.811 50.995 124.472C51.3897 125.133 51.587 125.885 51.587 126.728C51.587 127.571 51.3897 128.328 50.995 129C50.611 129.661 50.0723 130.179 49.379 130.552C48.6857 130.925 47.9017 131.112 47.027 131.112ZM47.027 129.4C47.763 129.4 48.371 129.155 48.851 128.664C49.331 128.173 49.571 127.528 49.571 126.728C49.571 125.928 49.331 125.283 48.851 124.792C48.371 124.301 47.763 124.056 47.027 124.056C46.291 124.056 45.683 124.301 45.203 124.792C44.7337 125.283 44.499 125.928 44.499 126.728C44.499 127.528 44.7337 128.173 45.203 128.664C45.683 129.155 46.291 129.4 47.027 129.4ZM57.3395 131.112C56.4755 131.112 55.6968 130.925 55.0035 130.552C54.3102 130.179 53.7662 129.661 53.3715 129C52.9875 128.328 52.7955 127.571 52.7955 126.728C52.7955 125.885 52.9875 125.133 53.3715 124.472C53.7662 123.811 54.3102 123.293 55.0035 122.92C55.6968 122.547 56.4755 122.36 57.3395 122.36C58.2142 122.36 58.9982 122.547 59.6915 122.92C60.3848 123.293 60.9235 123.811 61.3075 124.472C61.7022 125.133 61.8995 125.885 61.8995 126.728C61.8995 127.571 61.7022 128.328 61.3075 129C60.9235 129.661 60.3848 130.179 59.6915 130.552C58.9982 130.925 58.2142 131.112 57.3395 131.112ZM57.3395 129.4C58.0755 129.4 58.6835 129.155 59.1635 128.664C59.6435 128.173 59.8835 127.528 59.8835 126.728C59.8835 125.928 59.6435 125.283 59.1635 124.792C58.6835 124.301 58.0755 124.056 57.3395 124.056C56.6035 124.056 55.9955 124.301 55.5155 124.792C55.0462 125.283 54.8115 125.928 54.8115 126.728C54.8115 127.528 55.0462 128.173 55.5155 128.664C55.9955 129.155 56.6035 129.4 57.3395 129.4ZM67.3 127.336L65.812 128.744V131H63.812V119.128H65.812V126.296L69.956 122.456H72.356L68.788 126.04L72.692 131H70.26L67.3 127.336Z" fill="#FABC5A"/>
</svg>
