<svg width="119" height="152" viewBox="0 0 119 152" fill="none" xmlns="http://www.w3.org/2000/svg">
<rect width="119" height="152" fill="#0C0D14"/>
<rect x="-252" y="-1046" width="585" height="12733" stroke="#818C99" stroke-width="30"/>
<rect x="-147" y="-941" width="375" height="1207" rx="40" fill="white"/>
<rect width="119" height="152" rx="16" fill="#0E5561"/>
<path d="M21.44 103.176C22.0587 103.379 22.5493 103.72 22.912 104.2C23.2747 104.669 23.456 105.256 23.456 105.96C23.456 106.931 23.0827 107.683 22.336 108.216C21.5893 108.739 20.5013 109 19.072 109H13.504V97.8H18.752C20.0747 97.8 21.0933 98.0613 21.808 98.584C22.5227 99.096 22.88 99.8053 22.88 100.712C22.88 101.267 22.752 101.757 22.496 102.184C22.24 102.611 21.888 102.941 21.44 103.176ZM15.584 99.432V102.52H18.528C19.2533 102.52 19.808 102.392 20.192 102.136C20.5867 101.869 20.784 101.485 20.784 100.984C20.784 100.472 20.5867 100.088 20.192 99.832C19.808 99.5653 19.2533 99.432 18.528 99.432H15.584ZM18.944 107.368C20.5547 107.368 21.36 106.829 21.36 105.752C21.36 104.675 20.5547 104.136 18.944 104.136H15.584V107.368H18.944ZM33.5159 104.776C33.5159 104.915 33.5052 105.112 33.4839 105.368H26.7799C26.8972 105.997 27.2012 106.499 27.6919 106.872C28.1932 107.235 28.8119 107.416 29.5479 107.416C30.4865 107.416 31.2599 107.107 31.8679 106.488L32.9399 107.72C32.5559 108.179 32.0705 108.525 31.4839 108.76C30.8972 108.995 30.2359 109.112 29.4999 109.112C28.5612 109.112 27.7345 108.925 27.0199 108.552C26.3052 108.179 25.7505 107.661 25.3559 107C24.9719 106.328 24.7799 105.571 24.7799 104.728C24.7799 103.896 24.9665 103.149 25.3399 102.488C25.7239 101.816 26.2519 101.293 26.9239 100.92C27.5959 100.547 28.3532 100.36 29.1959 100.36C30.0279 100.36 30.7692 100.547 31.4199 100.92C32.0812 101.283 32.5932 101.8 32.9559 102.472C33.3292 103.133 33.5159 103.901 33.5159 104.776ZM29.1959 101.96C28.5559 101.96 28.0119 102.152 27.5639 102.536C27.1265 102.909 26.8599 103.411 26.7639 104.04H31.6119C31.5265 103.421 31.2652 102.92 30.8279 102.536C30.3905 102.152 29.8465 101.96 29.1959 101.96ZM39.357 109.112C38.4717 109.112 37.677 108.925 36.973 108.552C36.269 108.179 35.7197 107.661 35.325 107C34.9303 106.328 34.733 105.571 34.733 104.728C34.733 103.885 34.9303 103.133 35.325 102.472C35.7197 101.811 36.2637 101.293 36.957 100.92C37.661 100.547 38.461 100.36 39.357 100.36C40.1997 100.36 40.9357 100.531 41.565 100.872C42.205 101.213 42.685 101.704 43.005 102.344L41.469 103.24C41.2237 102.845 40.9143 102.552 40.541 102.36C40.1783 102.157 39.7783 102.056 39.341 102.056C38.5943 102.056 37.9757 102.301 37.485 102.792C36.9943 103.272 36.749 103.917 36.749 104.728C36.749 105.539 36.989 106.189 37.469 106.68C37.9597 107.16 38.5837 107.4 39.341 107.4C39.7783 107.4 40.1783 107.304 40.541 107.112C40.9143 106.909 41.2237 106.611 41.469 106.216L43.005 107.112C42.6743 107.752 42.189 108.248 41.549 108.6C40.9197 108.941 40.189 109.112 39.357 109.112ZM48.4489 109.112C47.5849 109.112 46.8062 108.925 46.1129 108.552C45.4195 108.179 44.8755 107.661 44.4809 107C44.0969 106.328 43.9049 105.571 43.9049 104.728C43.9049 103.885 44.0969 103.133 44.4809 102.472C44.8755 101.811 45.4195 101.293 46.1129 100.92C46.8062 100.547 47.5849 100.36 48.4489 100.36C49.3235 100.36 50.1075 100.547 50.8009 100.92C51.4942 101.293 52.0329 101.811 52.4169 102.472C52.8115 103.133 53.0089 103.885 53.0089 104.728C53.0089 105.571 52.8115 106.328 52.4169 107C52.0329 107.661 51.4942 108.179 50.8009 108.552C50.1075 108.925 49.3235 109.112 48.4489 109.112ZM48.4489 107.4C49.1849 107.4 49.7929 107.155 50.2729 106.664C50.7529 106.173 50.9929 105.528 50.9929 104.728C50.9929 103.928 50.7529 103.283 50.2729 102.792C49.7929 102.301 49.1849 102.056 48.4489 102.056C47.7129 102.056 47.1049 102.301 46.6249 102.792C46.1555 103.283 45.9209 103.928 45.9209 104.728C45.9209 105.528 46.1555 106.173 46.6249 106.664C47.1049 107.155 47.7129 107.4 48.4489 107.4ZM65.7054 100.36C66.7827 100.36 67.636 100.675 68.2654 101.304C68.8947 101.923 69.2094 102.856 69.2094 104.104V109H67.2094V104.36C67.2094 103.613 67.044 103.053 66.7134 102.68C66.3827 102.296 65.908 102.104 65.2894 102.104C64.6174 102.104 64.0787 102.328 63.6734 102.776C63.268 103.213 63.0654 103.843 63.0654 104.664V109H61.0654V104.36C61.0654 103.613 60.9 103.053 60.5694 102.68C60.2387 102.296 59.764 102.104 59.1454 102.104C58.4627 102.104 57.9187 102.323 57.5134 102.76C57.1187 103.197 56.9214 103.832 56.9214 104.664V109H54.9214V100.456H56.8254V101.544C57.1454 101.16 57.5454 100.867 58.0254 100.664C58.5054 100.461 59.0387 100.36 59.6254 100.36C60.2654 100.36 60.8307 100.483 61.3214 100.728C61.8227 100.963 62.2174 101.315 62.5054 101.784C62.8574 101.336 63.3107 100.989 63.8654 100.744C64.42 100.488 65.0334 100.36 65.7054 100.36ZM79.8753 104.776C79.8753 104.915 79.8646 105.112 79.8433 105.368H73.1393C73.2566 105.997 73.5606 106.499 74.0513 106.872C74.5526 107.235 75.1713 107.416 75.9073 107.416C76.8459 107.416 77.6193 107.107 78.2273 106.488L79.2993 107.72C78.9153 108.179 78.4299 108.525 77.8433 108.76C77.2566 108.995 76.5953 109.112 75.8593 109.112C74.9206 109.112 74.0939 108.925 73.3793 108.552C72.6646 108.179 72.1099 107.661 71.7153 107C71.3313 106.328 71.1393 105.571 71.1393 104.728C71.1393 103.896 71.3259 103.149 71.6993 102.488C72.0833 101.816 72.6113 101.293 73.2833 100.92C73.9553 100.547 74.7126 100.36 75.5553 100.36C76.3873 100.36 77.1286 100.547 77.7793 100.92C78.4406 101.283 78.9526 101.8 79.3153 102.472C79.6886 103.133 79.8753 103.901 79.8753 104.776ZM75.5553 101.96C74.9153 101.96 74.3713 102.152 73.9233 102.536C73.4859 102.909 73.2193 103.411 73.1233 104.04H77.9713C77.8859 103.421 77.6246 102.92 77.1873 102.536C76.7499 102.152 76.2059 101.96 75.5553 101.96ZM20.9979 122.36C22.2565 122.36 23.2165 122.664 23.8779 123.272C24.5499 123.869 24.8859 124.776 24.8859 125.992V131H22.9979V129.96C22.7525 130.333 22.4005 130.621 21.9419 130.824C21.4939 131.016 20.9499 131.112 20.3099 131.112C19.6699 131.112 19.1099 131.005 18.6299 130.792C18.1499 130.568 17.7765 130.264 17.5099 129.88C17.2539 129.485 17.1259 129.043 17.1259 128.552C17.1259 127.784 17.4085 127.171 17.9739 126.712C18.5499 126.243 19.4512 126.008 20.6779 126.008H22.8859V125.88C22.8859 125.283 22.7045 124.824 22.3419 124.504C21.9899 124.184 21.4619 124.024 20.7579 124.024C20.2779 124.024 19.8032 124.099 19.3339 124.248C18.8752 124.397 18.4859 124.605 18.1659 124.872L17.3819 123.416C17.8299 123.075 18.3685 122.813 18.9979 122.632C19.6272 122.451 20.2939 122.36 20.9979 122.36ZM20.7259 129.656C21.2272 129.656 21.6699 129.544 22.0539 129.32C22.4485 129.085 22.7259 128.755 22.8859 128.328V127.336H20.8219C19.6699 127.336 19.0939 127.715 19.0939 128.472C19.0939 128.835 19.2379 129.123 19.5259 129.336C19.8139 129.549 20.2139 129.656 20.7259 129.656Z" fill="white"/>
<path d="M32.0665 119.8H36.9625C38.1572 119.8 39.2185 120.035 40.1465 120.504C41.0745 120.963 41.7945 121.619 42.3065 122.472C42.8185 123.315 43.0745 124.291 43.0745 125.4C43.0745 126.509 42.8185 127.491 42.3065 128.344C41.7945 129.187 41.0745 129.843 40.1465 130.312C39.2185 130.771 38.1572 131 36.9625 131H32.0665V119.8ZM36.8665 129.24C37.6878 129.24 38.4078 129.085 39.0265 128.776C39.6558 128.456 40.1358 128.008 40.4665 127.432C40.8078 126.845 40.9785 126.168 40.9785 125.4C40.9785 124.632 40.8078 123.96 40.4665 123.384C40.1358 122.797 39.6558 122.349 39.0265 122.04C38.4078 121.72 37.6878 121.56 36.8665 121.56H34.1465V129.24H36.8665ZM46.9973 123.704C47.5733 122.808 48.5866 122.36 50.0373 122.36V124.264C49.8666 124.232 49.7119 124.216 49.5733 124.216C48.7946 124.216 48.1866 124.445 47.7493 124.904C47.3119 125.352 47.0933 126.003 47.0933 126.856V131H45.0933V122.456H46.9973V123.704ZM51.7339 122.456H53.7339V131H51.7339V122.456ZM52.7419 121.048C52.3792 121.048 52.0752 120.936 51.8299 120.712C51.5845 120.477 51.4619 120.189 51.4619 119.848C51.4619 119.507 51.5845 119.224 51.8299 119C52.0752 118.765 52.3792 118.648 52.7419 118.648C53.1045 118.648 53.4085 118.76 53.6539 118.984C53.8992 119.197 54.0219 119.469 54.0219 119.8C54.0219 120.152 53.8992 120.451 53.6539 120.696C53.4192 120.931 53.1152 121.048 52.7419 121.048ZM64.3589 122.456L60.6949 131H58.6309L54.9669 122.456H57.0469L59.7029 128.792L62.4389 122.456H64.3589ZM73.4065 126.776C73.4065 126.915 73.3958 127.112 73.3745 127.368H66.6705C66.7878 127.997 67.0918 128.499 67.5825 128.872C68.0838 129.235 68.7025 129.416 69.4385 129.416C70.3772 129.416 71.1505 129.107 71.7585 128.488L72.8305 129.72C72.4465 130.179 71.9612 130.525 71.3745 130.76C70.7878 130.995 70.1265 131.112 69.3905 131.112C68.4518 131.112 67.6252 130.925 66.9105 130.552C66.1958 130.179 65.6412 129.661 65.2465 129C64.8625 128.328 64.6705 127.571 64.6705 126.728C64.6705 125.896 64.8572 125.149 65.2305 124.488C65.6145 123.816 66.1425 123.293 66.8145 122.92C67.4865 122.547 68.2438 122.36 69.0865 122.36C69.9185 122.36 70.6598 122.547 71.3105 122.92C71.9718 123.283 72.4838 123.8 72.8465 124.472C73.2198 125.133 73.4065 125.901 73.4065 126.776ZM69.0865 123.96C68.4465 123.96 67.9025 124.152 67.4545 124.536C67.0172 124.909 66.7505 125.411 66.6545 126.04H71.5025C71.4172 125.421 71.1558 124.92 70.7185 124.536C70.2812 124.152 69.7372 123.96 69.0865 123.96ZM77.2316 123.704C77.8076 122.808 78.821 122.36 80.2716 122.36V124.264C80.101 124.232 79.9463 124.216 79.8076 124.216C79.029 124.216 78.421 124.445 77.9836 124.904C77.5463 125.352 77.3276 126.003 77.3276 126.856V131H75.3276V122.456H77.2316V123.704Z" fill="#FABC5A"/>
<rect width="38" height="38" rx="19" transform="matrix(-1 0 0 1 54 16)" fill="white"/>
<path d="M33.4324 40.3964C33.4324 40.5025 33.4242 40.6086 33.4079 40.7066C33.2528 41.7679 32.3384 42.5925 31.2362 42.5925C30.0279 42.5925 29.04 41.6128 29.04 40.3964C29.04 39.1881 30.0197 38.2002 31.2362 38.2002C32.4445 38.2084 33.4324 39.1881 33.4324 40.3964Z" fill="#1C1C1C"/>
<path d="M43.8756 35.5084L41.76 38.323C41.7355 38.3638 41.7111 38.4046 41.7029 38.4536L41.3926 40.4538C41.3682 40.6008 41.2457 40.7069 41.0906 40.7069H35.3971C35.2298 40.7069 35.0993 40.5637 35.0993 40.3965V40.3965C35.0993 38.7545 34.0728 37.3656 32.6415 36.8023C32.4699 36.7348 32.339 36.587 32.3111 36.4047L32.1753 35.5165C32.1182 35.4348 32.0283 35.3858 31.9222 35.3858H27.3421C27.1788 35.3858 27.04 35.247 27.04 35.0838V34.1712C27.04 34.0079 27.1788 33.8691 27.3421 33.8691H33.8989C34.0622 33.8691 34.201 34.0079 34.201 34.1712V35.4023C34.201 35.5656 34.3398 35.7044 34.5031 35.7044H37.6819C37.8452 35.7044 37.984 35.8432 37.984 36.0065V38.4046C37.984 38.5679 38.1228 38.7067 38.2861 38.7067H38.8699C38.9597 38.7067 39.0495 38.6659 39.1067 38.5924L41.5488 35.5166C41.6386 35.3941 41.6304 35.2308 41.5243 35.1165L41.2024 34.7414C41.0881 34.6271 41.0881 34.4393 41.2024 34.325L41.8801 33.6066C41.9944 33.4841 42.1903 33.4841 42.3128 33.5984L42.4795 33.7776L43.8347 35.1165C43.949 35.2226 43.9654 35.3859 43.8756 35.5084Z" fill="#1C1C1C"/>
<path d="M44.5193 40.2172C44.5193 40.3233 44.5111 40.4294 44.4948 40.5274C44.3397 41.5887 43.4253 42.4133 42.3231 42.4133C41.1148 42.4133 40.127 41.4336 40.127 40.2172C40.127 39.0089 41.1067 38.021 42.3231 38.021C43.5314 38.021 44.5193 39.0089 44.5193 40.2172Z" fill="#1C1C1C"/>
<path d="M33.5629 32.6291H26.1498C25.8233 32.6291 25.562 32.3678 25.562 32.0413V28.7919C25.562 28.4654 25.8233 28.2041 26.1498 28.2041H33.5629C33.8895 28.2041 34.1507 28.4654 34.1507 28.7919V32.0413C34.1507 32.3678 33.8895 32.6291 33.5629 32.6291Z" fill="#1C1C1C"/>
<path fill-rule="evenodd" clip-rule="evenodd" d="M37.45 29.7579C37.7703 29.7164 38.0858 29.8638 38.2596 30.1362L39.2625 31.7082L40.5571 31.8296C41.0154 31.8725 41.352 32.2788 41.3091 32.737C41.2661 33.1953 40.8599 33.5319 40.4016 33.489L38.7013 33.3296C38.4453 33.3056 38.2147 33.1649 38.0765 32.9481L37.8088 32.5285L37.2686 34.2133H39.1062C39.3772 34.2133 39.6312 34.345 39.7874 34.5665C39.9435 34.7879 39.9822 35.0715 39.8911 35.3267L38.5849 38.9869C38.4302 39.4203 37.9534 39.6463 37.5199 39.4916C37.0864 39.337 36.8605 38.8602 37.0151 38.4267L37.924 35.8799H36.1263C35.8601 35.8799 35.61 35.7528 35.4531 35.5377C35.2962 35.3227 35.2515 35.0456 35.3328 34.7922L36.7635 30.3299C36.8621 30.0223 37.1296 29.7994 37.45 29.7579Z" fill="#1C1C1C"/>
<path d="M38.5809 29.1613C39.2283 29.1613 39.7531 28.6365 39.7531 27.9891C39.7531 27.3417 39.2283 26.8169 38.5809 26.8169C37.9335 26.8169 37.4087 27.3417 37.4087 27.9891C37.4087 28.6365 37.9335 29.1613 38.5809 29.1613Z" fill="#1C1C1C"/>
<circle cx="69" cy="23" r="1" fill="#FABC5A"/>
<circle cx="23.5" cy="85.5" r="1.5" fill="#FABC5A"/>
<circle cx="89.5" cy="76.5" r="0.5" fill="#FABC5A"/>
<circle cx="99" cy="110" r="1" fill="#115F6C"/>
<circle cx="59" cy="66" r="1" fill="#115F6C"/>
<circle cx="100.5" cy="33.5" r="1.5" fill="#115F6C"/>
</svg>
