<svg width="16" height="20" viewBox="0 0 16 20" fill="none" xmlns="http://www.w3.org/2000/svg">
<path fill-rule="evenodd" clip-rule="evenodd" d="M0.301871 14.0971C0.0129932 14.7777 0.55464 15.5231 1.38517 15.5231H14.6013C15.4319 15.5231 16.0096 14.7777 15.6846 14.0971C14.9986 12.574 14.168 9.94901 14.3125 6.35181C14.3125 6.25459 14.3215 6.15737 14.3305 6.06015C14.3396 5.96293 14.3486 5.8657 14.3486 5.76848C14.3486 2.59258 11.4959 0.0324072 7.99326 0C4.49061 0.0324072 1.63793 2.59258 1.63793 5.76848C1.67404 5.96293 1.67404 6.15737 1.67404 6.35181C1.85459 9.98142 0.987957 12.6064 0.301871 14.0971ZM5.48819 18.411C5.26635 17.9052 5.73162 17.4392 6.28391 17.4392H9.71595C10.2682 17.4392 10.7335 17.9052 10.5117 18.411C10.1037 19.3412 9.12943 20 7.99993 20C6.87042 20 5.8962 19.3412 5.48819 18.411Z" fill="#1C1C1C"/>
</svg>
