<svg width="38" height="38" viewBox="0 0 38 38" fill="none" xmlns="http://www.w3.org/2000/svg">
<rect width="38" height="38" rx="19" transform="matrix(-1 0 0 1 38 0)" fill="white"/>
<path d="M17.4321 24.3964C17.4321 24.5025 17.424 24.6086 17.4076 24.7066C17.2525 25.7679 16.3381 26.5925 15.236 26.5925C14.0277 26.5925 13.0398 25.6128 13.0398 24.3964C13.0398 23.1881 14.0195 22.2002 15.236 22.2002C16.4443 22.2084 17.4321 23.1881 17.4321 24.3964Z" fill="#1C1C1C"/>
<path d="M27.8752 19.5084L25.7596 22.323C25.7351 22.3638 25.7107 22.4046 25.7025 22.4536L25.3923 24.4538C25.3678 24.6008 25.2453 24.7069 25.0902 24.7069H19.3967C19.2294 24.7069 19.0989 24.5637 19.0989 24.3965C19.0989 22.7366 18.05 21.3354 16.5942 20.7842C16.4505 20.7298 16.3415 20.6063 16.3183 20.4544L16.1749 19.5165C16.1178 19.4348 16.028 19.3858 15.9218 19.3858H11.3417C11.1784 19.3858 11.0396 19.247 11.0396 19.0838V18.1712C11.0396 18.0079 11.1784 17.8691 11.3417 17.8691H17.8985C18.0618 17.8691 18.2006 18.0079 18.2006 18.1712V19.4023C18.2006 19.5656 18.3394 19.7044 18.5027 19.7044H21.6815C21.8448 19.7044 21.9836 19.8432 21.9836 20.0065V22.4046C21.9836 22.5679 22.1224 22.7067 22.2857 22.7067H22.8695C22.9593 22.7067 23.0491 22.6659 23.1063 22.5924L25.5484 19.5166C25.6382 19.3941 25.63 19.2308 25.5239 19.1165L25.202 18.7414C25.0877 18.6271 25.0877 18.4393 25.202 18.325L25.8797 17.6066C25.994 17.4841 26.1899 17.4841 26.3124 17.5984L26.4791 17.7776L27.8343 19.1165C27.9486 19.2226 27.965 19.3859 27.8752 19.5084Z" fill="#1C1C1C"/>
<path d="M28.5191 24.2172C28.5191 24.3233 28.511 24.4294 28.4946 24.5274C28.3395 25.5887 27.4251 26.4133 26.323 26.4133C25.1147 26.4133 24.1268 25.4336 24.1268 24.2172C24.1268 23.0089 25.1065 22.021 26.323 22.021C27.5313 22.021 28.5191 23.0089 28.5191 24.2172Z" fill="#1C1C1C"/>
<path d="M17.5627 16.6291H10.1496C9.82308 16.6291 9.56183 16.3678 9.56183 16.0413V12.7919C9.56183 12.4654 9.82308 12.2041 10.1496 12.2041H17.5627C17.8893 12.2041 18.1505 12.4654 18.1505 12.7919V16.0413C18.1505 16.3678 17.8893 16.6291 17.5627 16.6291Z" fill="#1C1C1C"/>
<path fill-rule="evenodd" clip-rule="evenodd" d="M21.4499 13.7579C21.7703 13.7164 22.0857 13.8638 22.2595 14.1362L23.2624 15.7082L24.557 15.8296C25.0153 15.8725 25.3519 16.2788 25.309 16.737C25.266 17.1953 24.8598 17.5319 24.4015 17.489L22.7012 17.3296C22.4452 17.3056 22.2147 17.1649 22.0764 16.9481L21.8087 16.5285L21.2685 18.2133H23.1061C23.3771 18.2133 23.6311 18.345 23.7873 18.5665C23.9434 18.7879 23.9821 19.0715 23.891 19.3267L22.5848 22.9869C22.4301 23.4203 21.9533 23.6463 21.5198 23.4916C21.0864 23.337 20.8604 22.8602 21.0151 22.4267L21.9239 19.8799H20.1262C19.86 19.8799 19.6099 19.7528 19.453 19.5377C19.2961 19.3227 19.2514 19.0456 19.3327 18.7922L20.7634 14.3299C20.862 14.0223 21.1295 13.7994 21.4499 13.7579Z" fill="#1C1C1C"/>
<path d="M22.581 13.1613C23.2284 13.1613 23.7532 12.6365 23.7532 11.9891C23.7532 11.3417 23.2284 10.8169 22.581 10.8169C21.9336 10.8169 21.4088 11.3417 21.4088 11.9891C21.4088 12.6365 21.9336 13.1613 22.581 13.1613Z" fill="#1C1C1C"/>
</svg>
