<svg width="14" height="12" viewBox="0 0 14 12" fill="none" xmlns="http://www.w3.org/2000/svg">
<path d="M13.4994 3.98745C13.4992 3.98 13.4988 3.97259 13.4982 3.96513C13.4974 3.95366 13.4963 3.94234 13.4947 3.93108C13.4938 3.92464 13.4929 3.91822 13.4918 3.91179C13.4894 3.89858 13.4864 3.88561 13.483 3.87277C13.4821 3.86942 13.4817 3.86599 13.4808 3.86264L12.5844 0.72525C12.5241 0.516669 12.3978 0.333259 12.2244 0.202507C12.0511 0.0717558 11.84 0.000703996 11.6229 0H2.37714C2.16 0.00070451 1.94894 0.0717602 1.77558 0.202518C1.60223 0.333276 1.47592 0.516693 1.41559 0.725281L0.519226 3.86264C0.518265 3.86599 0.517851 3.86942 0.516968 3.87277C0.513581 3.88561 0.510605 3.89858 0.50824 3.91179C0.507096 3.91822 0.506195 3.92464 0.505295 3.93108C0.503738 3.94233 0.502564 3.95366 0.50177 3.96513C0.501236 3.97259 0.500824 3.98 0.500641 3.98745C0.500534 3.99166 0.5 3.99576 0.5 4V5C0.500031 5.38791 0.590416 5.77049 0.763991 6.1174C0.937567 6.46431 1.18956 6.76602 1.5 6.99862V11C1.5003 11.2651 1.60576 11.5193 1.79323 11.7068C1.9807 11.8942 2.23488 11.9997 2.5 12H11.5C11.7651 11.9997 12.0193 11.8942 12.2068 11.7068C12.3942 11.5193 12.4997 11.2651 12.5 11V6.99862C12.8104 6.76602 13.0624 6.46431 13.236 6.1174C13.4096 5.77049 13.5 5.38791 13.5 5V4C13.5 3.99576 13.4995 3.99166 13.4994 3.98745ZM1.5 4.5H4.5V5C4.50017 5.25806 4.43371 5.5118 4.30706 5.73665C4.18042 5.96149 3.99787 6.14984 3.77708 6.28345C3.5563 6.41706 3.30477 6.49141 3.04682 6.4993C2.78888 6.50719 2.53327 6.44836 2.30473 6.3285C2.27004 6.30157 2.23194 6.27935 2.19142 6.26239C1.97956 6.12683 1.8052 5.94016 1.68438 5.71956C1.56355 5.49896 1.50015 5.25152 1.5 5V4.5ZM8.5 5C8.5 5.39782 8.34196 5.77936 8.06066 6.06066C7.77936 6.34196 7.39782 6.5 7 6.5C6.60218 6.5 6.22064 6.34196 5.93934 6.06066C5.65804 5.77936 5.5 5.39782 5.5 5V4.5H8.5V5ZM11.8083 6.2626C11.768 6.27948 11.7301 6.30157 11.6956 6.3283C11.4671 6.44824 11.2115 6.50715 10.9535 6.49931C10.6955 6.49147 10.4439 6.41715 10.2231 6.28356C10.0023 6.14996 9.81967 5.96161 9.69299 5.73674C9.56631 5.51187 9.49983 5.2581 9.5 5V4.5H12.5V5C12.4999 5.25158 12.4364 5.49909 12.3155 5.71973C12.1946 5.94037 12.0202 6.12706 11.8083 6.2626Z" fill="#1C1C1C"/>
</svg>
