<svg width="21" height="21" viewBox="0 0 21 21" fill="none" xmlns="http://www.w3.org/2000/svg">
<path d="M16.7495 3H14.8745V2.375C14.8745 2.20924 14.8087 2.05027 14.6915 1.93306C14.5742 1.81585 14.4153 1.75 14.2495 1.75C14.0838 1.75 13.9248 1.81585 13.8076 1.93306C13.6904 2.05027 13.6245 2.20924 13.6245 2.375V3H7.37451V2.375C7.37451 2.20924 7.30866 2.05027 7.19145 1.93306C7.07424 1.81585 6.91527 1.75 6.74951 1.75C6.58375 1.75 6.42478 1.81585 6.30757 1.93306C6.19036 2.05027 6.12451 2.20924 6.12451 2.375V3H4.24951C3.91809 3.00033 3.60034 3.13213 3.36599 3.36648C3.13164 3.60083 2.99984 3.91858 2.99951 4.25V16.75C2.99984 17.0814 3.13164 17.3992 3.36599 17.6335C3.60034 17.8679 3.91809 17.9997 4.24951 18H16.7495C17.0809 17.9997 17.3987 17.8679 17.633 17.6335C17.8674 17.3992 17.9992 17.0814 17.9995 16.75V4.25C17.9992 3.91858 17.8674 3.60083 17.633 3.36648C17.3987 3.13213 17.0809 3.00033 16.7495 3ZM16.7495 6.75H4.24951V4.25H6.12451V4.875C6.12451 5.04076 6.19036 5.19973 6.30757 5.31694C6.42478 5.43415 6.58375 5.5 6.74951 5.5C6.91527 5.5 7.07424 5.43415 7.19145 5.31694C7.30866 5.19973 7.37451 5.04076 7.37451 4.875V4.25H13.6245V4.875C13.6245 5.04076 13.6904 5.19973 13.8076 5.31694C13.9248 5.43415 14.0838 5.5 14.2495 5.5C14.4153 5.5 14.5742 5.43415 14.6915 5.31694C14.8087 5.19973 14.8745 5.04076 14.8745 4.875V4.25H16.7495V6.75Z" fill="#1C1C1C"/>
</svg>
