<svg width="20" height="20" viewBox="0 0 20 20" fill="none" xmlns="http://www.w3.org/2000/svg">
<path fill-rule="evenodd" clip-rule="evenodd" d="M5.61528 2.05755L7.36963 6.15103L5.88452 8.42021C5.71913 8.67101 5.62135 8.96031 5.60068 9.26005C5.57994 9.56088 5.63759 9.86195 5.76799 10.1339L6.66965 9.7014L5.77136 10.1408C6.64771 11.9324 8.1 13.3781 9.89561 14.2463L9.8956 14.2463L9.90268 14.2497C10.1762 14.3793 10.4788 14.4355 10.7807 14.4126C11.0815 14.3899 11.3712 14.2895 11.6215 14.1212C11.6224 14.1206 11.6233 14.12 11.6242 14.1194L13.854 12.6325L17.9424 14.3847C17.8003 15.1547 17.4036 15.8569 16.8131 16.3768C16.1739 16.9395 15.3516 17.2499 14.5 17.25M7.63567 9.39673C8.29791 10.679 9.34527 11.7217 10.6304 12.3782L12.8571 10.8934C13.0994 10.7319 13.378 10.6334 13.6679 10.6067C13.9578 10.5801 14.2498 10.6262 14.5174 10.7409L18.9054 12.6215C18.9059 12.6217 18.9064 12.6219 18.9069 12.6221C19.2549 12.7703 19.5455 13.0275 19.7349 13.355C19.9246 13.683 20.0026 14.0637 19.957 14.4398L19.9562 14.4465L19.9562 14.4465C19.7866 15.7737 19.139 16.9937 18.1347 17.8779C17.1303 18.7621 15.8381 19.2499 14.5001 19.25H14.5C10.8533 19.25 7.35591 17.8013 4.77728 15.2227C2.19866 12.6441 0.75 9.1467 0.75 5.49997V5.49992C0.75007 4.16183 1.23787 2.86965 2.12207 1.86531C3.00626 0.860985 4.22622 0.213379 5.55352 0.043757L5.56014 0.0429108L5.56014 0.0429329C5.93626 -0.00258368 6.31699 0.0753665 6.64495 0.265041C6.97236 0.454391 7.22949 0.744844 7.37774 1.09276C7.37799 1.09336 7.37824 1.09395 7.37849 1.09454L9.26073 5.4864C9.3744 5.75165 9.42072 6.04088 9.39556 6.32836C9.37039 6.61584 9.27453 6.89263 9.1165 7.13409L7.63567 9.39673ZM5.61528 2.05755C4.8453 2.19967 4.14307 2.59641 3.62321 3.1869C3.06049 3.82607 2.75004 4.64844 2.75 5.50002C2.75 8.61632 3.98794 11.6049 6.1915 13.8085C8.39504 16.012 11.3837 17.25 14.4999 17.25" fill="#1C1C1C"/>
</svg>
