<svg width="24" height="24" viewBox="0 0 24 24" fill="none" xmlns="http://www.w3.org/2000/svg">
<path fill-rule="evenodd" clip-rule="evenodd" d="M17.8156 6.59052H20.8811C22.0533 6.59052 23 7.53724 23 8.66429V17.7258C23 18.8528 22.0984 19.7995 20.9262 19.7995H3.11885C1.94672 19.7995 1 18.8979 1 17.7258V8.66429C1 7.53724 1.94672 6.59052 3.11885 6.59052H6.18443C6.27459 5.95937 6.54508 5.3733 6.95082 4.96757C7.40164 4.47166 8.07787 4.20117 8.79918 4.20117H15.2008C16.5533 4.20117 17.6803 5.23806 17.8156 6.59052ZM12 17.0326C14.057 17.0326 15.7245 15.365 15.7245 13.308C15.7245 11.251 14.057 9.58351 12 9.58351C9.94298 9.58351 8.27545 11.251 8.27545 13.308C8.27545 15.365 9.94298 17.0326 12 17.0326ZM13.7245 13.308C13.7245 14.2605 12.9524 15.0326 12 15.0326C11.0475 15.0326 10.2755 14.2605 10.2755 13.308C10.2755 12.3556 11.0475 11.5835 12 11.5835C12.9524 11.5835 13.7245 12.3556 13.7245 13.308Z" fill="#0E5561"/>
</svg>
