<svg width="22" height="21" viewBox="0 0 22 21" fill="none" xmlns="http://www.w3.org/2000/svg">
<path d="M6.75 20.75C7.57843 20.75 8.25 20.0784 8.25 19.25C8.25 18.4216 7.57843 17.75 6.75 17.75C5.92157 17.75 5.25 18.4216 5.25 19.25C5.25 20.0784 5.92157 20.75 6.75 20.75Z" fill="#BEBECD"/>
<path d="M18 20.75C18.8284 20.75 19.5 20.0784 19.5 19.25C19.5 18.4216 18.8284 17.75 18 17.75C17.1716 17.75 16.5 18.4216 16.5 19.25C16.5 20.0784 17.1716 20.75 18 20.75Z" fill="#BEBECD"/>
<path fill-rule="evenodd" clip-rule="evenodd" d="M-0.25 1.25C-0.25 0.697715 0.197715 0.25 0.75 0.25H2.44258C2.85225 0.25 3.24894 0.393728 3.56354 0.656143C3.87813 0.918558 4.0907 1.28303 4.16419 1.68605L3.18041 1.86545M-0.25 1.25C-0.25 1.80228 0.197715 2.25 0.75 2.25L-0.25 1.25ZM0.75 2.25H2.23405H0.75ZM2.23405 2.25L2.75661 5.11562C2.76167 5.15955 2.76957 5.20262 2.78014 5.24463L4.57076 15.0639C4.64425 15.467 4.85681 15.8314 5.17141 16.0939C5.486 16.3563 5.88269 16.5 6.29237 16.5H18.466C18.8759 16.5 19.2727 16.3561 19.5874 16.0935C19.902 15.8309 20.1145 15.4661 20.1878 15.0629L21.8232 6.06288C21.8691 5.81069 21.8589 5.55152 21.7936 5.30369C21.7282 5.05586 21.6092 4.8254 21.4449 4.62862C21.2807 4.43184 21.0752 4.27355 20.8431 4.16493C20.6109 4.0563 20.3577 4 20.1014 4H4.58615L4.16419 1.68605M4.95087 6L6.5009 14.5H18.2573L19.8019 6H4.95087Z" fill="#BEBECD"/>
</svg>
