<svg width="20" height="20" viewBox="0 0 20 20" fill="none" xmlns="http://www.w3.org/2000/svg">
<path fill-rule="evenodd" clip-rule="evenodd" d="M10.8951 11.162C11.3584 11.4468 11.93 11.4468 12.3933 11.162C13.921 10.223 17.2532 7.8615 17.2532 5.12827C17.253 4.50151 17.0195 3.89412 16.5921 3.40939C16.1648 2.92465 15.57 2.59248 14.9091 2.46936C14.2481 2.34623 13.5616 2.43975 12.9664 2.73401C12.3712 3.02827 11.904 3.50511 11.6442 4.08346C11.3844 3.50511 10.9172 3.02827 10.322 2.73401C9.72677 2.43975 9.04032 2.34623 8.37933 2.46936C7.71835 2.59248 7.12363 2.92465 6.69629 3.40939C6.26895 3.89412 6.03536 4.50151 6.03525 5.12827C6.03525 7.8615 9.36736 10.223 10.8951 11.162ZM1.82801 12.0453L5.36492 11.4323C5.9122 11.3375 6.47548 11.4276 6.96585 11.6884L10.7344 13.6931C11.1618 13.8593 11.6367 13.9067 12.0878 13.8355L18.5432 12.4885C18.9706 12.4173 19.398 12.6784 19.5404 13.1058C19.7066 13.5807 19.4455 14.103 18.9706 14.2692L12.0878 17.4552C11.6842 17.5977 11.233 17.6214 10.8057 17.5265L1.83627 15.7804C1.7838 15.7702 1.73048 15.765 1.67703 15.765H0.409332V12.0575H1.68572C1.73341 12.0575 1.78102 12.0534 1.82801 12.0453Z" fill="#1C1C1C"/>
</svg>
