<svg width="20" height="20" viewBox="0 0 20 20" fill="none" xmlns="http://www.w3.org/2000/svg">
<path d="M18.0109 14.8254C18.4905 13.929 18.7441 12.9292 18.7499 11.9126C18.7557 10.896 18.5135 9.89329 18.0442 8.99145C17.5749 8.08962 16.8928 7.31584 16.0569 6.7372C15.221 6.15856 14.2566 5.79251 13.2473 5.67079C12.9157 4.89492 12.4305 4.19423 11.8208 3.61094C11.2111 3.02765 10.4897 2.57384 9.69992 2.27687C8.91015 1.9799 8.06843 1.84592 7.22549 1.88299C6.38255 1.92006 5.55584 2.12743 4.7952 2.49259C4.03455 2.85775 3.35572 3.37314 2.79961 4.0077C2.2435 4.64226 1.82164 5.38285 1.55944 6.18483C1.29724 6.98681 1.20014 7.83358 1.27399 8.6741C1.34783 9.51461 1.5911 10.3315 1.98913 11.0755L1.50596 12.7668C1.45235 12.9544 1.44986 13.1529 1.49877 13.3417C1.54767 13.5305 1.64619 13.7028 1.7841 13.8408C1.92201 13.9787 2.09431 14.0773 2.28312 14.1262C2.47194 14.1751 2.67041 14.1727 2.85797 14.1191L4.54956 13.6358C5.23408 14.0022 5.98099 14.2376 6.7519 14.3299C7.0927 15.1271 7.59559 15.8448 8.2286 16.4373C8.86162 17.0297 9.61094 17.4841 10.429 17.7715C11.247 18.0589 12.1158 18.173 12.9803 18.1066C13.8448 18.0402 14.686 17.7947 15.4506 17.3858L17.1421 17.8691C17.3296 17.9227 17.5281 17.9251 17.7169 17.8762C17.9057 17.8273 18.078 17.7287 18.2159 17.5908C18.3538 17.4529 18.4524 17.2806 18.5013 17.0918C18.5502 16.903 18.5478 16.7045 18.4942 16.517L18.0109 14.8254ZM16.801 14.4264C16.7575 14.4996 16.7293 14.5809 16.7184 14.6654C16.7074 14.7499 16.7138 14.8357 16.7372 14.9176L17.215 16.5899L15.5427 16.1121C15.4608 16.0888 15.375 16.0824 15.2905 16.0933C15.2061 16.1043 15.1248 16.1324 15.0516 16.1759C14.4796 16.5149 13.8457 16.7365 13.1871 16.8277C12.5285 16.9189 11.8583 16.8778 11.2157 16.707C10.5731 16.5361 9.97103 16.2389 9.44465 15.8327C8.91827 15.4265 8.47815 14.9194 8.15002 14.3411C9.00612 14.2525 9.83466 13.9878 10.5836 13.5637C11.3325 13.1396 11.9856 12.5652 12.502 11.8766C13.0183 11.188 13.3866 10.4 13.5839 9.56226C13.7811 8.72449 13.803 7.85498 13.6481 7.00835C14.4117 7.18873 15.1222 7.54624 15.7221 8.05198C16.322 8.55772 16.7945 9.19751 17.1015 9.91963C17.4084 10.6418 17.5411 11.426 17.4889 12.2089C17.4367 12.9918 17.2011 13.7514 16.801 14.4264Z" fill="#1C1C1C"/>
</svg>
