<svg width="20" height="20" viewBox="0 0 20 20" fill="none" xmlns="http://www.w3.org/2000/svg">
<path d="M18.1242 4.3601C18.124 4.34855 18.1234 4.33701 18.1225 4.32549C18.1218 4.31608 18.1208 4.30674 18.1197 4.29747C18.1184 4.28667 18.1167 4.27593 18.1148 4.26521C18.1131 4.25551 18.1112 4.24587 18.1091 4.23634C18.1067 4.22619 18.1041 4.21614 18.1013 4.20609C18.0986 4.19644 18.0957 4.18684 18.0926 4.17738C18.0893 4.16758 18.0857 4.15791 18.0819 4.14826C18.0783 4.13897 18.0746 4.12975 18.0706 4.12069C18.0663 4.11121 18.0618 4.10189 18.057 4.09258C18.0525 4.08365 18.0479 4.07482 18.0429 4.06616C18.0379 4.05731 18.0325 4.04862 18.027 4.03996C18.0214 4.03111 18.0156 4.02241 18.0095 4.01386C18.0039 4.00593 17.9981 3.99815 17.992 3.9904C17.9851 3.98161 17.978 3.97306 17.9707 3.96465C17.9672 3.96072 17.9643 3.95655 17.9607 3.95268C17.9577 3.94939 17.9544 3.94661 17.9514 3.94342C17.9438 3.93553 17.936 3.92792 17.928 3.92042C17.9207 3.91348 17.9133 3.90661 17.9057 3.90009C17.8981 3.89366 17.8904 3.8876 17.8826 3.88153C17.874 3.87489 17.8655 3.86831 17.8567 3.86219C17.8491 3.85687 17.8412 3.85193 17.8333 3.84695C17.824 3.84108 17.8148 3.83522 17.8053 3.82988C17.7969 3.82521 17.7883 3.82099 17.7797 3.81668C17.7704 3.81201 17.7611 3.8073 17.7515 3.8031C17.7421 3.79892 17.7324 3.79528 17.7226 3.79156C17.7137 3.78815 17.7047 3.78466 17.6956 3.78166C17.6852 3.77823 17.6746 3.77535 17.6639 3.77247C17.655 3.77005 17.6461 3.76759 17.6371 3.76556C17.6265 3.7632 17.6157 3.76133 17.6049 3.7595C17.5954 3.75788 17.5859 3.7563 17.5763 3.75511C17.566 3.75385 17.5557 3.75303 17.5453 3.75229C17.5348 3.75153 17.5243 3.75092 17.5137 3.75069C17.5091 3.75059 17.5046 3.75 17.5 3.75H2.5C2.49573 3.75 2.49161 3.75055 2.48734 3.75065C2.47597 3.75088 2.46468 3.75151 2.45335 3.75237C2.4437 3.75307 2.43412 3.75384 2.42462 3.75498C2.41425 3.75624 2.40395 3.75794 2.39365 3.75971C2.38358 3.76145 2.37351 3.76318 2.36359 3.76538C2.3539 3.76755 2.34436 3.77018 2.33475 3.77281C2.32476 3.77554 2.31476 3.77825 2.30496 3.78147C2.29527 3.78464 2.28581 3.78832 2.27627 3.79196C2.26708 3.79551 2.25785 3.79896 2.24884 3.80291C2.23892 3.80726 2.2292 3.81218 2.21943 3.81708C2.21123 3.8212 2.20303 3.82525 2.19506 3.82973C2.18525 3.8352 2.17572 3.84121 2.16618 3.84726C2.15855 3.85208 2.15088 3.85687 2.14348 3.86204C2.13452 3.86828 2.12582 3.87497 2.11716 3.88174C2.10945 3.88771 2.10183 3.89368 2.09446 3.9C2.08676 3.90658 2.07932 3.9135 2.07188 3.92052C2.06395 3.92798 2.0562 3.93555 2.04865 3.94341C2.0456 3.94661 2.04228 3.9494 2.03926 3.95268C2.03572 3.95655 2.03278 3.96073 2.02934 3.96466C2.02202 3.97307 2.01492 3.98161 2.00802 3.99041C2.00195 3.99815 1.99612 4.00593 1.99047 4.01387C1.98441 4.02241 1.97861 4.03111 1.973 4.03996C1.96747 4.04862 1.96213 4.05732 1.95709 4.06617C1.95213 4.07483 1.94752 4.08366 1.94298 4.09258C1.93825 4.10189 1.93367 4.11122 1.92944 4.1207C1.92539 4.12976 1.92169 4.13897 1.91807 4.14826C1.91429 4.15791 1.91067 4.16758 1.90743 4.17739C1.90426 4.18685 1.90144 4.19644 1.89873 4.20609C1.89594 4.21614 1.89327 4.22619 1.89095 4.23634C1.88881 4.24588 1.88694 4.25551 1.88522 4.26522C1.88332 4.27594 1.88164 4.28668 1.8803 4.29747C1.87916 4.30676 1.87823 4.3161 1.87752 4.32549C1.8766 4.33703 1.87602 4.34857 1.87576 4.36011C1.87565 4.36511 1.875 4.36997 1.875 4.37501V15C1.87538 15.3314 2.0072 15.6491 2.24154 15.8835C2.47587 16.1178 2.7936 16.2496 3.125 16.25H16.875C17.2064 16.2496 17.5241 16.1178 17.7585 15.8835C17.9928 15.6491 18.1246 15.3314 18.125 15V4.375C18.125 4.36997 18.1244 4.3651 18.1242 4.3601ZM16.875 15H3.12501V5.79582L9.57765 11.7107C9.69293 11.8164 9.84363 11.875 10 11.875C10.1564 11.875 10.3071 11.8164 10.4224 11.7107L16.8751 5.79571L16.8758 15L16.875 15Z" fill="#1C1C1C"/>
</svg>
