<svg width="16" height="22" viewBox="0 0 16 22" fill="none" xmlns="http://www.w3.org/2000/svg">
<path fill-rule="evenodd" clip-rule="evenodd" d="M4.04146 1C4.04146 0.447715 4.48918 0 5.04146 0H10.9585C11.5108 0 11.9585 0.447715 11.9585 1V1.83069H14.8739C15.3795 1.83069 15.7893 2.2405 15.7893 2.74603C15.7893 3.25156 15.3795 3.66138 14.8739 3.66138H1.12604C0.620506 3.66138 0.210693 3.25156 0.210693 2.74603C0.210693 2.2405 0.620507 1.83069 1.12604 1.83069H4.04146V1ZM3.13501 5.5238C2.03044 5.5238 1.13501 6.41923 1.13501 7.5238V20C1.13501 21.1046 2.03044 22 3.13501 22H12.8652C13.9697 22 14.8652 21.1046 14.8652 20V7.5238C14.8652 6.41923 13.9697 5.5238 12.8652 5.5238H3.13501ZM4.65724 17.6222C4.65724 18.1277 5.06706 18.5375 5.57259 18.5375C6.07812 18.5375 6.48793 18.1277 6.48793 17.6222L6.48793 9.90194C6.48793 9.39641 6.07812 8.9866 5.57259 8.9866C5.06706 8.9866 4.65724 9.39641 4.65724 9.90194L4.65724 17.6222ZM10.4275 18.5375C9.922 18.5375 9.51219 18.1277 9.51219 17.6222V9.90194C9.51219 9.39641 9.922 8.9866 10.4275 8.9866C10.9331 8.9866 11.3429 9.39641 11.3429 9.90194V17.6222C11.3429 18.1277 10.9331 18.5375 10.4275 18.5375Z" fill="#1C1C1C"/>
</svg>
