<svg width="16" height="16" viewBox="0 0 16 16" fill="none" xmlns="http://www.w3.org/2000/svg">
<path fill-rule="evenodd" clip-rule="evenodd" d="M10.4637 2.13553V5.04517C10.4637 5.29818 10.2522 5.50902 9.99848 5.50902H4.83928C4.58555 5.50902 4.3741 5.29818 4.3741 5.04517V2.13553C4.3741 1.41866 5.00843 0.786133 5.76963 0.786133H9.11042C9.82933 0.786133 10.4637 1.41866 10.4637 2.13553ZM8.08569 2.17765C8.08569 1.80946 7.78722 1.51099 7.41903 1.51099C7.05084 1.51099 6.75236 1.80946 6.75236 2.17765V2.48096H6.44621C6.07802 2.48096 5.77954 2.77943 5.77954 3.14762C5.77954 3.51581 6.07802 3.81429 6.44621 3.81429H6.75236V4.11741C6.75236 4.4856 7.05084 4.78408 7.41903 4.78408C7.78722 4.78408 8.08569 4.4856 8.08569 4.11741V3.81429H8.39148C8.75967 3.81429 9.05815 3.51581 9.05815 3.14762C9.05815 2.77943 8.75967 2.48096 8.39148 2.48096H8.08569V2.17765ZM10.4214 7.15671C10.4637 6.94587 10.2945 6.73503 10.0831 6.73503H4.75474C4.5433 6.73503 4.37415 6.94587 4.41644 7.15671C4.58559 8.63262 5.89654 9.77117 7.41892 9.77117C8.94131 9.77117 10.21 8.63262 10.4214 7.15671ZM13.3907 10.8248C13.6507 11.0855 13.6501 11.5076 13.3894 11.7676L10.9183 14.2317C10.7918 14.3578 10.6201 14.4279 10.4415 14.4262C10.2629 14.4246 10.0925 14.3514 9.96831 14.223L8.75522 12.9686C8.49927 12.7039 8.50634 12.2819 8.77102 12.0259C9.0357 11.77 9.45775 11.777 9.7137 12.0417L10.4562 12.8095L12.4479 10.8234C12.7087 10.5634 13.1308 10.564 13.3907 10.8248ZM9.00984 15.1499C9.03102 15.1718 9.05265 15.1932 9.07471 15.214H3.59839C2.92177 15.214 2.41431 14.708 2.41431 14.0755V12.8526C2.41431 11.8405 3.26008 10.9972 4.275 10.9972H7.92063C7.89469 11.0198 7.86918 11.0432 7.84415 11.0674C7.05012 11.8353 7.02889 13.1014 7.79674 13.8955L9.00984 15.1499Z" fill="#1C1C1C"/>
</svg>
