<svg width="15" height="17" viewBox="0 0 15 17" fill="none" xmlns="http://www.w3.org/2000/svg">
<path fill-rule="evenodd" clip-rule="evenodd" d="M4.03032 9.78739C4.06487 9.41551 4.22333 9.06601 4.48028 8.79496L9.44606 3.55667C9.73957 3.24705 9.90318 2.83667 9.90318 2.41004V1.77523C9.90318 1.31499 9.53008 0.941895 9.06984 0.941895H0.847494C0.387256 0.941895 0.0141602 1.31499 0.0141602 1.77523V15.2251C0.0141602 15.6854 0.387256 16.0585 0.847493 16.0585H9.06984C9.53008 16.0585 9.90318 15.6854 9.90318 15.2251V13.4221C9.90318 12.9218 9.28274 12.6894 8.95404 13.0664C8.78775 13.2572 8.55988 13.3836 8.31004 13.4238L4.68393 14.007C4.14623 14.0935 3.67145 13.6494 3.72184 13.1071L4.03032 9.78739ZM5.07717 12.7229L7.70305 12.297C7.73016 12.2835 7.75209 12.2751 7.77082 12.268C7.80113 12.2564 7.82306 12.248 7.84499 12.2261L14.9065 5.16458C15.0129 5.05812 15.0129 4.91618 14.9065 4.80973L12.7064 2.60967C12.6 2.50321 12.458 2.50321 12.3516 2.60967L5.29008 9.67116C5.2546 9.70664 5.21911 9.77761 5.21911 9.8131L4.79329 12.439C4.75781 12.6164 4.89975 12.7583 5.07717 12.7229Z" fill="#1C1C1C"/>
</svg>
