<svg width="20" height="16" viewBox="0 0 20 16" fill="none" xmlns="http://www.w3.org/2000/svg">
<path fill-rule="evenodd" clip-rule="evenodd" d="M1.74991 11.1243L10.7499 11.1243C11.3022 11.1243 11.7499 11.572 11.7499 12.1243C11.7499 12.6766 11.3022 13.1243 10.7499 13.1243L1.74991 13.1243C1.19763 13.1243 0.749909 12.6766 0.749908 12.1243C0.749907 11.572 1.19762 11.1243 1.74991 11.1243Z" fill="#1C1C1C"/>
<path fill-rule="evenodd" clip-rule="evenodd" d="M12.7499 12.1243C12.7499 11.572 13.1976 11.1243 13.7499 11.1243L18.2499 11.1243C18.8022 11.1243 19.2499 11.572 19.2499 12.1243C19.2499 12.6766 18.8022 13.1243 18.2499 13.1243L13.7499 13.1243C13.1976 13.1243 12.7499 12.6765 12.7499 12.1243Z" fill="#1C1C1C"/>
<path fill-rule="evenodd" clip-rule="evenodd" d="M0.749908 3.87424C0.749922 3.32196 1.19765 2.87425 1.74993 2.87427L4.74993 2.87434C5.30222 2.87435 5.74992 3.32208 5.74991 3.87436C5.7499 4.42665 5.30217 4.87435 4.74988 4.87434L1.74988 4.87427C1.1976 4.87425 0.749895 4.42653 0.749908 3.87424Z" fill="#1C1C1C"/>
<path fill-rule="evenodd" clip-rule="evenodd" d="M7.7499 2.87434L18.2499 2.87427C18.8022 2.87426 19.2499 3.32198 19.2499 3.87426C19.2499 4.42655 18.8022 4.87426 18.2499 4.87427L7.74992 4.87434C7.19763 4.87434 6.74991 4.42663 6.74991 3.87435C6.7499 3.32206 7.19762 2.87434 7.7499 2.87434Z" fill="#1C1C1C"/>
<path fill-rule="evenodd" clip-rule="evenodd" d="M7.74991 0.624268C8.30219 0.624268 8.74991 1.07198 8.74991 1.62427V6.12427C8.74991 6.67655 8.30219 7.12427 7.74991 7.12427C7.19762 7.12427 6.74991 6.67655 6.74991 6.12427V1.62427C6.74991 1.07198 7.19762 0.624268 7.74991 0.624268Z" fill="#1C1C1C"/>
<path fill-rule="evenodd" clip-rule="evenodd" d="M13.7499 8.87427C14.3022 8.87427 14.7499 9.32198 14.7499 9.87427V14.3743C14.7499 14.9266 14.3022 15.3743 13.7499 15.3743C13.1976 15.3743 12.7499 14.9266 12.7499 14.3743V9.87427C12.7499 9.32198 13.1976 8.87427 13.7499 8.87427Z" fill="#1C1C1C"/>
</svg>
