<svg width="16" height="16" viewBox="0 0 16 16" fill="none" xmlns="http://www.w3.org/2000/svg">
<path d="M13.5029 9.81194C13.5029 12.8529 11.0488 15.3337 7.98119 15.3337C4.96692 15.307 2.48614 12.8529 2.48614 9.81194C2.27274 4.95709 6.08727 1.72942 7.50104 0.715766C7.68776 0.582391 7.92784 0.742441 7.90116 0.955841C7.74111 2.74307 7.63442 4.69034 8.27461 5.94406C8.67474 6.77099 9.33999 7.1126 10.2736 6.8992C10.6091 6.82251 10.9947 6.45143 11.0953 6.04762C11.1855 5.68545 11.3074 5.33076 11.1822 4.45456C11.1751 4.40527 11.1274 4.10627 11.099 3.8486C11.0723 3.60706 11.2231 3.54219 11.398 3.7109C11.4973 3.80669 11.5999 3.92223 11.6697 4.04366C12.4966 5.21736 13.6896 7.19779 13.5029 9.81194Z" fill="#1C1C1C"/>
</svg>
