<svg width="20" height="20" viewBox="0 0 20 20" fill="none" xmlns="http://www.w3.org/2000/svg">
<path fill-rule="evenodd" clip-rule="evenodd" d="M8.54483 4.42558H11.4925C11.9978 4.42558 12.3768 3.99454 12.3768 3.52041C12.3768 3.04627 11.9978 2.61523 11.4925 2.61523H8.54483C8.08162 2.61523 7.66052 3.00317 7.66052 3.52041C7.66052 3.99454 8.03951 4.42558 8.54483 4.42558ZM17.102 13.8652C17.5622 13.8652 17.9397 13.4911 17.8943 13.0331C17.4886 8.94278 14.1236 5.76175 10.0186 5.76175C5.9137 5.76175 2.54869 8.94278 2.14299 13.0331C2.09757 13.4911 2.47506 13.8652 2.9353 13.8652H17.102ZM5.43236 10.4286C4.97213 10.4286 4.59903 10.8017 4.59903 11.262C4.59903 11.7222 4.97213 12.0953 5.43236 12.0953H6.88075C7.34099 12.0953 7.71409 11.7222 7.71409 11.262C7.71409 10.8017 7.34099 10.4286 6.88075 10.4286H5.43236ZM17.0089 17.3849H2.98625C2.48093 17.3849 2.10194 16.9539 2.10194 16.4797C2.10194 15.9625 2.52304 15.5746 2.98625 15.5746H17.0089C17.5142 15.5746 17.8932 16.0056 17.8932 16.4797C17.9353 16.9539 17.5142 17.3849 17.0089 17.3849Z" fill="#1C1C1C"/>
</svg>
