<svg width="14" height="14" viewBox="0 0 14 14" fill="none" xmlns="http://www.w3.org/2000/svg">
<path fill-rule="evenodd" clip-rule="evenodd" d="M6.98674 4.06469C6.98674 2.15435 8.56485 0.631611 10.5029 0.714669C12.2471 0.797728 13.6868 2.29278 13.6868 4.03701C13.6868 4.6461 13.5484 5.19983 13.2715 5.69818C13.2715 5.71202 13.2646 5.71894 13.2577 5.72586C13.2507 5.73279 13.2438 5.73971 13.2438 5.75355L13.1884 5.8643L10.7521 9.87879C10.5583 10.1833 10.1153 10.1833 9.92147 9.87879L9.4508 9.10358L7.48509 5.83661L7.40203 5.69818C7.23591 5.39363 7.09748 5.03371 7.04211 4.6461C7.01442 4.4523 6.98674 4.2585 6.98674 4.06469ZM10.3368 5.53206C9.64461 5.53206 9.0632 4.95065 9.0632 4.2585C9.0632 3.56634 9.64461 2.98493 10.3368 2.98493C11.0289 2.98493 11.6103 3.56634 11.6103 4.2585C11.6103 4.97834 11.0566 5.53206 10.3368 5.53206ZM8.50091 12.6027V10.4708L8.08562 9.77867L6.14759 6.53939L6.06453 6.37327C5.87073 6.04104 5.7323 5.7088 5.67693 5.3212C5.67693 5.27967 5.67 5.24506 5.66308 5.21045C5.65616 5.17584 5.64924 5.14124 5.64924 5.09971C5.64924 4.96128 5.56618 4.82284 5.45544 4.73979L4.90171 4.35218C4.59717 4.15838 4.20956 4.15838 3.9327 4.35218L0.693416 6.67782C0.471927 6.81625 0.333496 7.06542 0.333496 7.34228V12.6027C0.333496 13.0733 0.693416 13.4332 1.16408 13.4332H2.88062C3.1298 13.4332 3.35129 13.2118 3.35129 12.9626V10.7477C3.35129 10.4985 3.54509 10.277 3.82195 10.277H4.98477C5.23395 10.277 5.45544 10.4708 5.45544 10.7477V12.9626C5.45544 13.2118 5.67693 13.4332 5.9261 13.4332H7.67033C8.14099 13.4332 8.50091 13.0733 8.50091 12.6027Z" fill="#1C1C1C"/>
</svg>
