<svg width="20" height="20" viewBox="0 0 20 20" fill="none" xmlns="http://www.w3.org/2000/svg">
<path fill-rule="evenodd" clip-rule="evenodd" d="M9.9995 2.35082L2.75 8.9424V17.25L6.74945 17.2494V12.9993C6.74945 12.5352 6.93383 12.0901 7.26201 11.7619C7.5902 11.4337 8.03532 11.2493 8.49945 11.2493H11.4995C11.9636 11.2493 12.4087 11.4337 12.7369 11.7619C13.0651 12.0901 13.2495 12.5352 13.2495 12.9993V17.2494L17.25 17.25V8.94244L9.9995 2.35082ZM8.8222 0.718146C9.14432 0.425255 9.56405 0.262954 9.99943 0.262939C10.4348 0.262925 10.8545 0.425197 11.1767 0.718067L18.6772 7.53698C18.8576 7.701 19.0018 7.90092 19.1004 8.1239C19.199 8.34689 19.25 8.58803 19.25 8.83186V17.5C19.25 17.7298 19.2047 17.9574 19.1168 18.1697C19.0288 18.3821 18.8999 18.575 18.7374 18.7375C18.5748 18.9 18.3819 19.0289 18.1695 19.1168C17.9572 19.2048 17.7296 19.25 17.4998 19.25L12.9992 19.2494C12.5351 19.2493 12.0901 19.0649 11.7619 18.7368C11.4338 18.4086 11.2494 17.9635 11.2495 17.4994V13.2493H8.74945V17.4994C8.74945 17.9635 8.5651 18.4086 8.23696 18.7368C7.90882 19.0649 7.46376 19.2493 6.99968 19.2494L2.50023 19.25C2.27039 19.25 2.0428 19.2048 1.83046 19.1168C1.61811 19.0289 1.42517 18.9 1.26264 18.7375C1.10012 18.575 0.971192 18.3821 0.883232 18.1697C0.795272 17.9574 0.75 17.7298 0.75 17.5V8.83182C0.75 8.58801 0.800945 8.3469 0.89957 8.12392C0.998194 7.90095 1.14232 7.70105 1.32271 7.53703L8.8222 0.718146Z" fill="#BEBECD"/>
</svg>
