<svg width="24" height="20" viewBox="0 0 24 20" fill="none" xmlns="http://www.w3.org/2000/svg">
<path fill-rule="evenodd" clip-rule="evenodd" d="M13.465 11.6966C15.8804 12.0076 17.9353 9.98613 17.9353 7.45923C17.9353 6.4096 17.5748 5.43771 16.962 4.69908L14.2581 0.889295C14.1139 0.656042 13.7895 0.656042 13.6453 0.889295L10.9415 4.69908C10.2926 5.55434 9.89601 6.7206 10.0402 7.96461C10.2205 9.8695 11.6625 11.4634 13.465 11.6966ZM2.19362 12.6394L6.43792 11.9039C7.09465 11.7901 7.77058 11.8982 8.35904 12.2112L12.8813 14.6167C13.3942 14.8162 13.964 14.8732 14.5054 14.7877L22.2519 13.1712C22.7647 13.0858 23.2776 13.3992 23.4485 13.912C23.648 14.4819 23.3346 15.1087 22.7647 15.3081L14.5054 19.1313C14.021 19.3023 13.4797 19.3308 12.9668 19.2168L2.20353 17.1215C2.14057 17.1093 2.07659 17.1031 2.01245 17.1031H0.491211V12.6541H2.02287C2.0801 12.6541 2.13723 12.6492 2.19362 12.6394Z" fill="#0E5561"/>
</svg>
