<svg width="18" height="13" viewBox="0 0 18 13" fill="none" xmlns="http://www.w3.org/2000/svg">
<path d="M17.1243 0.860105C17.1241 0.848546 17.1235 0.837007 17.1226 0.825486C17.1218 0.816083 17.1209 0.806743 17.1198 0.797467C17.1184 0.786671 17.1168 0.775933 17.1149 0.765214C17.1131 0.755506 17.1113 0.745874 17.1091 0.736337C17.1068 0.726189 17.1041 0.716138 17.1014 0.706086C17.0986 0.696435 17.0958 0.686841 17.0927 0.677381C17.0894 0.667577 17.0858 0.657906 17.082 0.648256C17.0784 0.638967 17.0747 0.629754 17.0706 0.620694C17.0664 0.611215 17.0618 0.601888 17.0571 0.59258C17.0526 0.583653 17.0479 0.574822 17.043 0.566163C17.038 0.557313 17.0326 0.548616 17.0271 0.539956C17.0215 0.531106 17.0157 0.522409 17.0096 0.513863C17.004 0.505928 16.9981 0.498146 16.9921 0.490403C16.9852 0.48161 16.9781 0.473064 16.9707 0.464653C16.9673 0.460724 16.9644 0.456547 16.9608 0.452675C16.9578 0.449394 16.9545 0.446609 16.9514 0.443424C16.9439 0.435528 16.9361 0.427917 16.9281 0.420422C16.9208 0.413479 16.9134 0.406613 16.9057 0.400089C16.8982 0.393662 16.8905 0.387596 16.8827 0.38153C16.8741 0.37489 16.8656 0.368313 16.8568 0.362191C16.8492 0.356869 16.8413 0.351929 16.8334 0.346951C16.8241 0.341076 16.8148 0.33522 16.8053 0.32988C16.797 0.325207 16.7884 0.320992 16.7798 0.316682C16.7705 0.312008 16.7612 0.307297 16.7516 0.303101C16.7422 0.298924 16.7324 0.295281 16.7227 0.291561C16.7137 0.288147 16.7048 0.284656 16.6957 0.281662C16.6852 0.278229 16.6746 0.275349 16.664 0.272469C16.6551 0.270047 16.6462 0.267586 16.6372 0.265564C16.6266 0.263199 16.6158 0.26133 16.605 0.259499C16.5954 0.257878 16.5859 0.256295 16.5763 0.255112C16.5661 0.253853 16.5558 0.253033 16.5454 0.252289C16.5349 0.251526 16.5243 0.250916 16.5138 0.250687C16.5092 0.250592 16.5047 0.25 16.5001 0.25H1.50008C1.49581 0.25 1.49169 0.250553 1.48741 0.250648C1.47605 0.250877 1.46476 0.251508 1.45343 0.252367C1.44377 0.25307 1.4342 0.253836 1.4247 0.254981C1.41432 0.256239 1.40402 0.257937 1.39373 0.259711C1.38365 0.261446 1.37358 0.263182 1.36367 0.265376C1.35398 0.26755 1.34444 0.270182 1.33483 0.272814C1.32483 0.275542 1.31484 0.27825 1.30503 0.281474C1.29535 0.28464 1.28588 0.288321 1.27635 0.291964C1.26715 0.295512 1.25792 0.298964 1.24892 0.302913C1.239 0.307261 1.22927 0.312182 1.21951 0.317084C1.21131 0.321204 1.2031 0.325247 1.19513 0.32973C1.18533 0.335204 1.17579 0.341214 1.16626 0.347258C1.15863 0.352084 1.15096 0.356867 1.14356 0.36204C1.13459 0.368278 1.1259 0.374972 1.11724 0.381743C1.10953 0.387713 1.1019 0.393683 1.09454 0.399996C1.08683 0.406577 1.0794 0.4135 1.07196 0.42052C1.06402 0.427977 1.05628 0.435549 1.04872 0.44341C1.04567 0.446613 1.04235 0.449399 1.03934 0.45268C1.03579 0.456552 1.03286 0.460727 1.02942 0.464658C1.0221 0.473069 1.015 0.481611 1.0081 0.490407C1.00203 0.498151 0.996194 0.505933 0.990547 0.513867C0.984483 0.522413 0.978684 0.53111 0.973076 0.539961C0.967545 0.54862 0.962204 0.557317 0.957169 0.566167C0.95221 0.574827 0.947594 0.583658 0.943054 0.592585C0.938325 0.601892 0.933747 0.61122 0.929512 0.620699C0.925469 0.629761 0.921769 0.638971 0.918145 0.64826C0.914369 0.657911 0.910744 0.667581 0.907502 0.677385C0.904336 0.686845 0.901513 0.69644 0.898804 0.706091C0.896019 0.716142 0.893349 0.726194 0.891022 0.736341C0.888886 0.745878 0.887017 0.75551 0.885301 0.765219C0.883393 0.775938 0.881715 0.786676 0.880379 0.797472C0.879233 0.80676 0.878304 0.8161 0.877594 0.825491C0.876678 0.83703 0.876093 0.84857 0.875839 0.86011C0.875725 0.86511 0.875076 0.869971 0.875076 0.875006V11.5C0.875455 11.8314 1.00727 12.1491 1.24161 12.3835C1.47595 12.6178 1.79367 12.7496 2.12508 12.75H15.8751C16.2065 12.7496 16.5242 12.6178 16.7585 12.3835C16.9929 12.1491 17.1247 11.8314 17.1251 11.5V0.875001C17.1251 0.869966 17.1244 0.865102 17.1243 0.860105ZM15.8751 11.5H2.12509V2.29582L8.57772 8.21074C8.69301 8.31639 8.84371 8.375 9.00009 8.375C9.15646 8.375 9.30716 8.31639 9.42245 8.21074L15.8752 2.29571L15.8758 11.5L15.8751 11.5Z" fill="#1C1C1C"/>
</svg>
