<svg width="16" height="15" viewBox="0 0 16 15" fill="none" xmlns="http://www.w3.org/2000/svg">
<path d="M8 0C3.84239 0 0.5 3.34239 0.5 7.5C0.5 11.6576 3.84239 15 8 15C12.1576 15 15.5 11.6576 15.5 7.5C15.5 3.34239 12.1576 0 8 0ZM9.1413 11.25C9.1413 11.9022 8.61141 12.3913 8 12.3913C7.34783 12.3913 6.8587 11.8614 6.8587 11.25V7.25543C6.8587 6.60326 7.38859 6.11413 8 6.11413C8.32609 6.11413 8.61141 6.23641 8.81522 6.44022C9.01902 6.64402 9.1413 6.92935 9.1413 7.25543V11.25ZM8 4.93207C7.34783 4.93207 6.8587 4.40217 6.8587 3.79076C6.8587 3.13859 7.38859 2.64946 8 2.64946C8.65217 2.64946 9.1413 3.17935 9.1413 3.79076C9.1413 4.40217 8.65217 4.93207 8 4.93207Z" fill="#1C1C1C"/>
</svg>
