<svg width="48" height="48" viewBox="0 0 48 48" fill="none" xmlns="http://www.w3.org/2000/svg">
<rect width="48" height="48" rx="16" fill="#F7F7FA"/>
<path fill-rule="evenodd" clip-rule="evenodd" d="M24.8147 20.7436C25.4792 19.9978 26.234 18.8003 26.234 17.2081C26.234 15.5636 25.5025 14.3015 24.8458 13.4999C24.303 12.8373 23.3488 12.8373 22.8061 13.4999C22.1494 14.3015 21.4178 15.5636 21.4178 17.2081C21.4178 18.7793 22.1777 19.9827 22.8437 20.7358C23.3794 21.3415 24.2768 21.3473 24.8147 20.7436ZM24.8259 23.6841C24.8259 23.1318 24.3782 22.6841 23.8259 22.6841C23.2736 22.6841 22.8259 23.1318 22.8259 23.6841V34.4996C22.8259 35.0519 23.2736 35.4996 23.8259 35.4996C24.3782 35.4996 24.8259 35.0519 24.8259 34.4996V23.6841ZM20.2592 21.4462C21.3742 22.5687 21.6906 23.9544 21.7532 24.9565C21.8038 25.7669 21.1672 26.4052 20.3569 26.3528C19.3621 26.2886 17.9904 25.9687 16.8786 24.8494C15.7353 23.6985 15.3586 22.295 15.2515 21.2625C15.1622 20.4012 15.8445 19.7176 16.7056 19.8093C17.7303 19.9185 19.1194 20.2989 20.2592 21.4462ZM21.7532 31.856C21.6906 30.8539 21.3742 29.4683 20.2592 28.3458C19.1194 27.1984 17.7303 26.818 16.7056 26.7089C15.8445 26.6171 15.1622 27.3007 15.2515 28.1621C15.3586 29.1946 15.7353 30.598 16.8786 31.7489C17.9904 32.8682 19.3621 33.1881 20.3569 33.2524C21.1672 33.3048 21.8038 32.6664 21.7532 31.856ZM27.7409 21.4462C26.6258 22.5687 26.3094 23.9543 26.2468 24.9564C26.1962 25.7668 26.8328 26.4051 27.6431 26.3528C28.6379 26.2885 30.0096 25.9686 31.1215 24.8493C32.2647 23.6984 32.6414 22.295 32.7485 21.2624C32.8379 20.4011 32.1555 19.7175 31.2945 19.8092C30.2697 19.9184 28.8806 20.2988 27.7409 21.4462ZM26.2468 31.8561C26.3094 30.854 26.6258 29.4683 27.7409 28.3458C28.8806 27.1985 30.2697 26.8181 31.2945 26.7089C32.1555 26.6172 32.8379 27.3008 32.7485 28.1621C32.6414 29.1946 32.2647 30.5981 31.1215 31.749C30.0096 32.8682 28.6379 33.1882 27.6431 33.2524C26.8328 33.3048 26.1962 32.6665 26.2468 31.8561Z" fill="#1C1C1C"/>
</svg>
