<svg width="20" height="14" viewBox="0 0 20 14" fill="none" xmlns="http://www.w3.org/2000/svg">
<path d="M12.8332 1.38103L13.2915 2.31436C13.3749 2.48103 13.5165 2.58936 13.6999 2.60603L14.7165 2.75603C15.3415 2.85603 15.5999 3.62269 15.1415 4.06436L14.3999 4.78103C14.2665 4.91436 14.2165 5.08936 14.2332 5.27269L14.4165 6.28936C14.5332 6.91436 13.8582 7.39769 13.2999 7.08936L12.3832 6.61436C12.2165 6.53103 12.0415 6.53103 11.8749 6.61436L10.9582 7.08936C10.4082 7.38103 9.74154 6.90603 9.8582 6.28103L10.0415 5.26436C10.0749 5.08103 10.0082 4.90603 9.87487 4.77269L9.14154 4.05603C8.6832 3.61436 8.94154 2.84769 9.56654 2.74769L10.5832 2.59769C10.7665 2.56436 10.9082 2.46436 10.9915 2.30603L11.4499 1.37269C11.7332 0.806028 12.5582 0.806028 12.8332 1.38103ZM1.82487 7.51436L5.3582 6.89769C5.9082 6.80603 6.47487 6.89769 6.96654 7.15603L10.7332 9.16436C11.1582 9.33103 11.6332 9.38103 12.0832 9.30603L18.5415 7.95603C18.9665 7.88103 19.3999 8.14769 19.5415 8.57269C19.7082 9.04769 19.4499 9.57269 18.9749 9.73936L12.0915 12.9227C11.6915 13.0644 11.2332 13.0894 10.8082 12.9977L1.84154 11.2477C1.79154 11.2394 1.7332 11.231 1.6832 11.231H0.408203V7.53103H1.6832C1.7332 7.53103 1.7832 7.52269 1.82487 7.51436Z" fill="#1C1C1C"/>
</svg>
