<svg width="24" height="24" viewBox="0 0 24 24" fill="none" xmlns="http://www.w3.org/2000/svg">
<path fill-rule="evenodd" clip-rule="evenodd" d="M23 6.49681V5.58014C23 4.48014 22.0833 3.56348 20.9833 3.56348H3.01667C1.91667 3.56348 1 4.48014 1 5.58014V6.58848C3.2 8.14681 6.59167 9.15514 10.5333 9.43014C10.5333 9.43014 11.45 9.52181 12 9.52181C12.55 9.52181 13.4667 9.43014 13.4667 9.43014C17.4083 9.15514 20.8 8.05514 23 6.49681ZM23 8.61102V18.4194C23 19.5194 22.0833 20.436 20.9833 20.436H3.01667C1.91667 20.436 1 19.5194 1 18.4194V8.79436C3.01667 10.261 6.13333 11.2694 9.61667 11.5444C9.61667 11.5444 10.8083 11.636 12.0917 11.636C13.2833 11.636 14.3833 11.5444 14.3833 11.5444C17.8667 11.1777 20.9833 10.0777 23 8.61102ZM15.1354 16.7709C15.1354 16.2186 15.5831 15.7709 16.1354 15.7709H19.4354C19.9877 15.7709 20.4354 16.2186 20.4354 16.7709C20.4354 17.3232 19.9877 17.7709 19.4354 17.7709H16.1354C15.5831 17.7709 15.1354 17.3232 15.1354 16.7709Z" fill="#0E5561"/>
</svg>
