<svg width="18" height="22" viewBox="0 0 18 22" fill="none" xmlns="http://www.w3.org/2000/svg">
<path d="M8.99945 0.499512C6.81221 0.502107 4.7153 1.37213 3.16869 2.91875C1.62207 4.46536 0.752046 6.56227 0.749451 8.74951C0.749451 15.8086 8.24945 21.1406 8.56879 21.364C8.69508 21.4522 8.84541 21.4995 8.99945 21.4995C9.15349 21.4995 9.30382 21.4522 9.43011 21.364C9.74945 21.1406 17.2495 15.8086 17.2495 8.74951C17.2469 6.56227 16.3768 4.46536 14.8302 2.91875C13.2836 1.37213 11.1867 0.502107 8.99945 0.499512ZM9 5.74978C9.59334 5.74978 10.1734 5.92573 10.6667 6.25538C11.1601 6.58502 11.5446 7.05356 11.7716 7.60173C11.9987 8.14991 12.0581 8.75311 11.9424 9.33506C11.8266 9.917 11.5409 10.4515 11.1213 10.8711C10.7018 11.2907 10.1672 11.5764 9.58527 11.6921C9.00333 11.8079 8.40013 11.7485 7.85195 11.5214C7.30377 11.2944 6.83524 10.9098 6.50559 10.4165C6.17595 9.92315 6 9.34313 6 8.74978C5.99999 8.35582 6.07758 7.9657 6.22834 7.60172C6.3791 7.23774 6.60008 6.90702 6.87865 6.62844C7.15723 6.34986 7.48795 6.12888 7.85194 5.97812C8.21592 5.82736 8.60603 5.74977 9 5.74978Z" fill="#818C99"/>
</svg>
