<svg width="20" height="22" viewBox="0 0 20 22" fill="none" xmlns="http://www.w3.org/2000/svg">
<path fill-rule="evenodd" clip-rule="evenodd" d="M9.88448 4.77015C9.88448 4.77015 11.2814 4.43064 12.0309 2.85191C12.7464 1.34108 12.1161 0 12.1161 0C12.1161 0 10.6851 0.373464 9.95262 1.8843C9.2201 3.46303 9.88448 4.77015 9.88448 4.77015ZM9.73382 21.1376C9.55405 21.2217 9.3677 21.2936 9.17501 21.3526C5.9287 22.3474 2.11125 19.3109 0.648498 14.5705C-0.814255 9.83017 0.631604 5.18098 3.87791 4.18627C5.84241 3.58432 8.01606 4.4586 9.75047 6.29337C11.4832 4.46601 13.6521 3.59636 15.6128 4.19712C18.8591 5.19183 20.3049 9.84102 18.8422 14.5814C17.3794 19.3218 13.562 22.3582 10.3157 21.3635C10.1147 21.3019 9.9207 21.2264 9.73382 21.1376ZM17.3151 14.0404C16.2321 17.6643 13.4255 19.9805 11.0308 19.2242C10.7105 19.1296 10.4207 18.9721 10.1614 18.783V8.25781C11.5037 6.49312 13.3188 5.59501 14.9356 6.11497C17.3303 6.87127 18.3981 10.4322 17.3151 14.0404Z" fill="#1C1C1C"/>
</svg>
