<svg width="20" height="20" viewBox="0 0 20 20" fill="none" xmlns="http://www.w3.org/2000/svg">
<path fill-rule="evenodd" clip-rule="evenodd" d="M9.99984 18.3332C14.6022 18.3332 18.3332 14.6022 18.3332 9.99984C18.3332 5.39746 14.6022 1.6665 9.99984 1.6665C5.39746 1.6665 1.6665 5.39746 1.6665 9.99984C1.6665 14.6022 5.39746 18.3332 9.99984 18.3332ZM9.55584 6.13981C9.45133 5.69159 9.00326 5.41296 8.55504 5.51747C8.10683 5.62198 7.8282 6.07005 7.93271 6.51826L8.95693 10.911C9.04488 11.2882 9.38116 11.5551 9.7685 11.5551H13.8817C14.3419 11.5551 14.715 11.182 14.715 10.7218C14.715 10.2616 14.3419 9.88846 13.8817 9.88846H10.4299L9.55584 6.13981Z" fill="#1C1C1C"/>
</svg>
