<svg width="20" height="18" viewBox="0 0 20 18" fill="none" xmlns="http://www.w3.org/2000/svg">
<path fill-rule="evenodd" clip-rule="evenodd" d="M4.125 6.75C4.125 6.19772 4.57272 5.75 5.125 5.75H14.875C15.4273 5.75 15.875 6.19772 15.875 6.75C15.875 7.30228 15.4273 7.75 14.875 7.75H5.125C4.57272 7.75 4.125 7.30228 4.125 6.75Z" fill="#BEBECD"/>
<path fill-rule="evenodd" clip-rule="evenodd" d="M4.125 9.75C4.125 9.19772 4.57272 8.75 5.125 8.75H14.875C15.4273 8.75 15.875 9.19772 15.875 9.75C15.875 10.3023 15.4273 10.75 14.875 10.75H5.125C4.57272 10.75 4.125 10.3023 4.125 9.75Z" fill="#BEBECD"/>
<path fill-rule="evenodd" clip-rule="evenodd" d="M2 2.5V14.882L3.55279 14.1056C3.83431 13.9648 4.16569 13.9648 4.44721 14.1056L7 15.382L9.55279 14.1056C9.83431 13.9648 10.1657 13.9648 10.4472 14.1056L13 15.382L15.5528 14.1056C15.8343 13.9648 16.1657 13.9648 16.4472 14.1056L18 14.882V2.5H2ZM0.512563 1.01256C0.840751 0.684375 1.28587 0.5 1.75 0.5H18.25C18.7141 0.5 19.1592 0.684374 19.4874 1.01256C19.8156 1.34075 20 1.78587 20 2.25V16.5C20 16.8466 19.8205 17.1684 19.5257 17.3507C19.2309 17.5329 18.8628 17.5494 18.5528 17.3944L16 16.118L13.4472 17.3944C13.1657 17.5352 12.8343 17.5352 12.5528 17.3944L10 16.118L7.44721 17.3944C7.16569 17.5352 6.83431 17.5352 6.55279 17.3944L4 16.118L1.44721 17.3944C1.13723 17.5494 0.769085 17.5329 0.474269 17.3507C0.179452 17.1684 0 16.8466 0 16.5V2.25C0 1.78587 0.184375 1.34075 0.512563 1.01256Z" fill="#BEBECD"/>
</svg>
