<svg width="12" height="13" viewBox="0 0 12 13" fill="none" xmlns="http://www.w3.org/2000/svg">
<path d="M11 0H1C0.734889 0.000344799 0.480736 0.105812 0.293274 0.293274C0.105812 0.480736 0.000344799 0.734889 0 1V4.6665C0 10.2578 4.73877 12.1118 5.68945 12.4268C5.89084 12.4951 6.10916 12.4951 6.31055 12.4268C7.26074 12.1118 12 10.2583 12 4.6665V1C11.9997 0.734889 11.8942 0.480736 11.7067 0.293274C11.5193 0.105812 11.2651 0.000344634 11 0ZM9.09521 4.36182L5.42822 7.86182C5.33518 7.95052 5.21156 8 5.08301 8C4.95446 8 4.83084 7.95052 4.73779 7.86182L2.90479 6.11182C2.8572 6.0665 2.81902 6.01225 2.79241 5.95217C2.76581 5.89208 2.75131 5.82734 2.74973 5.76165C2.74816 5.69596 2.75955 5.63061 2.78325 5.56932C2.80695 5.50803 2.8425 5.45202 2.88786 5.40447C2.93322 5.35693 2.9875 5.3188 3.04761 5.29225C3.10772 5.26569 3.17247 5.25125 3.23816 5.24974C3.30385 5.24822 3.3692 5.25967 3.43047 5.28343C3.49173 5.30718 3.54771 5.34278 3.59522 5.38818L5.08301 6.80859L8.40478 3.63818C8.45228 3.59278 8.50827 3.55718 8.56953 3.53343C8.6308 3.50967 8.69615 3.49822 8.76184 3.49974C8.82753 3.50125 8.89228 3.51569 8.95239 3.54225C9.0125 3.5688 9.06678 3.60693 9.11214 3.65447C9.1575 3.70202 9.19305 3.75803 9.21675 3.81932C9.24045 3.88061 9.25184 3.94596 9.25027 4.01165C9.24869 4.07734 9.23419 4.14208 9.20759 4.20216C9.18098 4.26225 9.1428 4.3165 9.09521 4.36182H9.09521Z" fill="black"/>
</svg>
