<svg width="46" height="46" viewBox="0 0 46 46" fill="none" xmlns="http://www.w3.org/2000/svg">
<rect width="46" height="46" rx="23" transform="matrix(-1 0 0 1 46 0)" fill="#FABC5A"/>
<path fill-rule="evenodd" clip-rule="evenodd" d="M23.0001 22.6617C25.6681 22.6617 27.8309 20.4989 27.8309 17.8309C27.8309 15.1629 25.6681 13 23.0001 13C20.332 13 18.1692 15.1629 18.1692 17.8309C18.1692 20.4989 20.332 22.6617 23.0001 22.6617ZM18.524 25.1259C16.3496 25.1259 14.5869 26.8885 14.5869 29.0629C14.5869 31.2373 16.3496 33 18.524 33H27.476C29.6504 33 31.4131 31.2373 31.4131 29.0629C31.4131 26.8885 29.6504 25.1259 27.476 25.1259H18.524Z" fill="#1C1C1C"/>
</svg>
