<svg width="20" height="20" viewBox="0 0 20 20" fill="none" xmlns="http://www.w3.org/2000/svg">
<path d="M18.5173 8.02449C18.4745 7.84409 18.3921 7.67545 18.2761 7.53074C18.1602 7.38602 18.0136 7.26885 17.8469 7.18766L16.7137 6.62736L16.278 5.87258L16.3593 4.61099C16.3723 4.42603 16.3442 4.24048 16.2768 4.06773C16.2095 3.89498 16.1046 3.73932 15.9698 3.61199C15.0007 2.69335 13.8283 2.01649 12.5482 1.63648C12.3705 1.58343 12.1832 1.57047 12 1.59852C11.8167 1.62658 11.6419 1.69495 11.4882 1.79871L10.4364 2.49989H9.56477L8.51298 1.79875C8.35933 1.69492 8.18454 1.6265 8.00124 1.59843C7.81793 1.57035 7.63068 1.58332 7.45299 1.6364C6.17286 2.01641 5.00052 2.69326 4.03136 3.61188C3.89654 3.73921 3.79167 3.89488 3.72431 4.06765C3.65695 4.24043 3.62878 4.426 3.64184 4.61099L3.72317 5.87251L3.28738 6.62729L2.15419 7.18762C1.98748 7.2688 1.84086 7.38597 1.72492 7.53068C1.60898 7.67538 1.5266 7.84402 1.48372 8.02442C1.17274 9.32307 1.17274 10.6768 1.48372 11.9755C1.52659 12.1559 1.60898 12.3245 1.72492 12.4692C1.84086 12.6139 1.98748 12.7311 2.15419 12.8123L3.28738 13.3726L3.7231 14.1274L3.64177 15.389C3.62873 15.5739 3.65689 15.7595 3.72424 15.9322C3.79158 16.105 3.89643 16.2606 4.03121 16.3879C5.00038 17.3066 6.17273 17.9835 7.45288 18.3635C7.63056 18.4166 7.81781 18.4296 8.00111 18.4015C8.18442 18.3734 8.35921 18.305 8.51287 18.2012L9.5647 17.5H10.4363L11.4881 18.2012C11.6959 18.3408 11.9405 18.4157 12.191 18.4163C12.3119 18.4163 12.4323 18.3985 12.5481 18.3635C13.8282 17.9835 15.0005 17.3067 15.9697 16.3881C16.1045 16.2607 16.2094 16.1051 16.2767 15.9323C16.3441 15.7595 16.3723 15.5739 16.3592 15.389L16.2779 14.1274L16.7137 13.3727L17.8469 12.8123C18.0136 12.7311 18.1602 12.614 18.2761 12.4693C18.3921 12.3246 18.4745 12.1559 18.5173 11.9755C18.8283 10.6769 18.8283 9.32315 18.5173 8.02449H18.5173ZM13.7506 9.99997C13.7506 10.7417 13.5306 11.4667 13.1186 12.0834C12.7065 12.7 12.1208 13.1807 11.4356 13.4645C10.7504 13.7483 9.9964 13.8226 9.26897 13.6779C8.54154 13.5332 7.87336 13.1761 7.34891 12.6516C6.82446 12.1272 6.46731 11.459 6.32262 10.7316C6.17792 10.0041 6.25219 9.25013 6.53601 8.56491C6.81984 7.87969 7.30049 7.29402 7.91717 6.88196C8.53386 6.46991 9.25888 6.24997 10.0006 6.24997C10.9948 6.2511 11.948 6.64654 12.651 7.34956C13.354 8.05258 13.7494 9.00575 13.7506 9.99997Z" fill="#1C1C1C"/>
</svg>
