<svg width="46" height="46" viewBox="0 0 46 46" fill="none" xmlns="http://www.w3.org/2000/svg">
<rect width="46" height="46" rx="23" transform="matrix(-1 0 0 1 46 0)" fill="#FABC5A"/>
<path d="M32.999 19.9041C32.9987 19.8926 32.9981 19.8812 32.9973 19.8697C32.9961 19.8521 32.9943 19.8347 32.9919 19.8174C32.9905 19.8074 32.9891 19.7976 32.9873 19.7877C32.9837 19.7673 32.9791 19.7474 32.9739 19.7276C32.9725 19.7225 32.9719 19.7172 32.9704 19.7121L31.5914 14.8853C31.4986 14.5644 31.3042 14.2822 31.0375 14.0811C30.7709 13.8799 30.4461 13.7706 30.1121 13.7695H15.8879C15.5538 13.7706 15.2291 13.8799 14.9624 14.0811C14.6957 14.2823 14.5014 14.5644 14.4086 14.8853L13.0296 19.7121C13.0281 19.7172 13.0275 19.7225 13.0261 19.7276C13.0209 19.7474 13.0163 19.7673 13.0127 19.7877C13.0109 19.7976 13.0095 19.8074 13.0081 19.8174C13.0058 19.8347 13.0039 19.8521 13.0027 19.8697C13.0019 19.8812 13.0013 19.8926 13.001 19.9041C13.0008 19.9105 13 19.9169 13 19.9234V21.4618C13 22.0586 13.1391 22.6472 13.4061 23.1809C13.6732 23.7146 14.0609 24.1788 14.5385 24.5366V30.6926C14.5389 31.1005 14.7012 31.4915 14.9896 31.7799C15.278 32.0684 15.669 32.2306 16.0769 32.2311H29.9231C30.331 32.2306 30.722 32.0684 31.0104 31.7799C31.2988 31.4915 31.4611 31.1005 31.4615 30.6926V24.5366C31.9391 24.1788 32.3268 23.7146 32.5939 23.1809C32.8609 22.6472 33 22.0586 33 21.4618V19.9234C33 19.9169 32.9992 19.9105 32.999 19.9041ZM14.5385 20.6926H19.1538V21.4618C19.1541 21.8589 19.0519 22.2492 18.857 22.5951C18.6622 22.9411 18.3813 23.2308 18.0417 23.4364C17.702 23.6419 17.315 23.7563 16.9182 23.7685C16.5214 23.7806 16.1281 23.6901 15.7765 23.5057C15.7231 23.4643 15.6645 23.4301 15.6022 23.404C15.2762 23.1954 15.008 22.9082 14.8221 22.5689C14.6362 22.2295 14.5387 21.8488 14.5385 21.4618V20.6926ZM25.3077 21.4618C25.3077 22.0739 25.0646 22.6608 24.6318 23.0936C24.199 23.5264 23.612 23.7695 23 23.7695C22.388 23.7695 21.801 23.5264 21.3682 23.0936C20.9354 22.6608 20.6923 22.0739 20.6923 21.4618V20.6926H25.3077V21.4618ZM30.3973 23.4043C30.3354 23.4303 30.2771 23.4642 30.2241 23.5054C29.8725 23.6899 29.4792 23.7805 29.0823 23.7685C28.6854 23.7564 28.2984 23.6421 27.9586 23.4365C27.6189 23.231 27.338 22.9412 27.1431 22.5953C26.9482 22.2493 26.8459 21.8589 26.8462 21.4618V20.6926H31.4615V21.4618C31.4613 21.8489 31.3637 22.2297 31.1777 22.5691C30.9918 22.9086 30.7234 23.1958 30.3973 23.4043Z" fill="#1C1C1C"/>
</svg>
