<svg width="18" height="20" viewBox="0 0 18 20" fill="none" xmlns="http://www.w3.org/2000/svg">
<path fill-rule="evenodd" clip-rule="evenodd" d="M2.1539 0.833496C1.19247 0.833496 0.413086 1.61288 0.413086 2.57431V17.426C0.413086 18.3874 1.19248 19.1668 2.1539 19.1668H5.07031C4.94665 19.0447 4.83763 18.9042 4.7476 18.7467C4.37282 18.0908 4.40921 17.269 4.8686 16.6388L7.03639 13.6153C5.96598 13.5147 4.95407 13.0588 4.20728 12.2105C3.34779 11.2766 2.98451 10.0924 2.98451 8.86544C2.98451 7.6283 3.35385 6.43462 4.2288 5.49718C5.12066 4.54161 6.27208 4.13109 7.49712 4.13109C8.67045 4.13109 9.89811 4.51135 10.7868 5.52026C11.1352 5.89874 11.402 6.31834 11.5962 6.76523L12.4179 5.46124L12.4556 5.4014L12.4981 5.34482C12.5885 5.22419 12.6885 5.11432 12.7966 5.0159V2.57431C12.7966 1.61288 12.0172 0.833496 11.0558 0.833496H2.1539ZM4.72542 8.86543C4.72542 9.7524 4.98412 10.4915 5.50152 11.0459C5.98197 11.6003 6.68416 11.8959 7.49721 11.8959C8.31027 11.8959 8.9755 11.6003 9.4929 11.0459C10.0103 10.4915 10.269 9.7524 10.269 8.86543C10.269 7.97846 10.0103 7.23931 9.4929 6.68496C9.01246 6.1306 8.31027 5.8719 7.49721 5.8719C6.68416 5.8719 6.01893 6.1306 5.50152 6.68496C4.98412 7.23931 4.72542 7.97846 4.72542 8.86543ZM10.4907 11.7851L6.27763 17.6612C6.16676 17.8091 6.27763 17.9939 6.46241 17.9939H8.05157C8.23636 17.9939 8.38419 17.883 8.49506 17.7352L11.8212 12.4133L16.2191 6.3893C16.293 6.27843 16.2191 6.16755 16.1082 6.16755H14.3343C14.1495 6.16755 14.0017 6.24147 13.8908 6.3893L10.4907 11.7851ZM8.42115 8.90239C8.42115 9.34588 8.34723 9.67849 8.16244 9.93719C8.01462 10.1959 7.79287 10.3068 7.46026 10.2698C7.1646 10.2698 6.94286 10.1589 6.75807 9.90023C6.57328 9.64153 6.49937 9.30892 6.49937 8.86543C6.49937 8.42194 6.57328 8.08933 6.75807 7.83063C6.94286 7.57193 7.1646 7.46106 7.46026 7.46106C7.75592 7.46106 7.97766 7.57193 8.16244 7.83063C8.34723 8.08933 8.42115 8.4589 8.42115 8.90239ZM12.043 15.259C12.043 16.146 12.3017 16.8851 12.8191 17.4395C13.3365 17.9939 14.0017 18.2526 14.8147 18.2526C15.6278 18.2526 16.293 17.9939 16.8104 17.4395C17.3278 16.8851 17.5865 16.146 17.5865 15.259C17.5865 14.3721 17.3278 13.6329 16.8104 13.0786C16.33 12.5242 15.6278 12.2655 14.8147 12.2655C14.0017 12.2655 13.3365 12.5242 12.8191 13.0786C12.3017 13.6329 12.043 14.3721 12.043 15.259ZM15.7756 15.259C15.7756 15.7025 15.7017 16.0351 15.5169 16.2938C15.3321 16.5525 15.1104 16.7004 14.8147 16.6634C14.5191 16.6634 14.2973 16.5525 14.1126 16.2938C13.9278 16.0351 13.8539 15.7025 13.8539 15.259C13.8539 14.8155 13.9278 14.4829 14.1126 14.2242C14.2973 13.9655 14.5191 13.8547 14.8147 13.8547C15.1104 13.8547 15.3321 13.9655 15.5169 14.2242C15.7017 14.446 15.7756 14.8155 15.7756 15.259Z" fill="#1C1C1C"/>
</svg>
