<svg width="24" height="24" viewBox="0 0 24 24" fill="none" xmlns="http://www.w3.org/2000/svg">
<path fill-rule="evenodd" clip-rule="evenodd" d="M21.3668 8.95717C22.1138 8.95717 22.5971 8.1679 22.2575 7.50255L20.1507 3.37494C19.809 2.70553 19.1209 2.28418 18.3693 2.28418H5.60152C4.84697 2.28418 4.15664 2.70884 3.8164 3.38232L1.73296 7.50624C1.39693 8.17137 1.88032 8.95717 2.62552 8.95717H21.3668ZM2.04198 10.9096C1.48795 10.9096 1.03882 11.3587 1.03882 11.9128C1.03882 12.4668 1.48795 12.9159 2.04198 12.9159L21.8416 12.9159C22.3956 12.9159 22.8447 12.4668 22.8447 11.9128C22.8447 11.3587 22.3956 10.9096 21.8416 10.9096L2.04198 10.9096ZM2.04198 14.3085C2.59601 14.3085 3.04514 14.7577 3.04514 15.3117L3.04514 20.7123C3.04514 21.2664 2.59601 21.7155 2.04198 21.7155C1.48795 21.7155 1.03882 21.2664 1.03882 20.7123V15.3117C1.03882 14.7577 1.48795 14.3085 2.04198 14.3085ZM22.8448 15.3117C22.8448 14.7577 22.3956 14.3085 21.8416 14.3085C21.2876 14.3085 20.8384 14.7577 20.8384 15.3117V20.7123C20.8384 21.2664 21.2876 21.7155 21.8416 21.7155C22.3956 21.7155 22.8448 21.2664 22.8448 20.7123V15.3117ZM6.05461 14.3085C6.60864 14.3085 7.05777 14.7577 7.05777 15.3117V18.7652C7.05777 19.3192 6.60864 19.7683 6.05461 19.7683C5.50058 19.7683 5.05145 19.3192 5.05145 18.7652V15.3117C5.05145 14.7577 5.50058 14.3085 6.05461 14.3085ZM18.8321 15.3117C18.8321 14.7577 18.383 14.3085 17.829 14.3085C17.2749 14.3085 16.8258 14.7577 16.8258 15.3117V18.7652C16.8258 19.3192 17.2749 19.7683 17.829 19.7683C18.383 19.7683 18.8321 19.3192 18.8321 18.7652V15.3117Z" fill="#818C99"/>
</svg>
