<svg width="12" height="12" viewBox="0 0 12 12" fill="none" xmlns="http://www.w3.org/2000/svg">
<path d="M11 0H1C0.734838 0.000178969 0.480588 0.105593 0.293091 0.293091C0.105593 0.480588 0.000178969 0.734838 0 1V11C0.000178969 11.2652 0.105593 11.5194 0.293091 11.7069C0.480588 11.8944 0.734838 11.9998 1 12H7.79297C7.92432 12.0002 8.05443 11.9745 8.17577 11.9242C8.29712 11.8739 8.40732 11.8001 8.5 11.707L11.707 8.5C11.8001 8.40732 11.8739 8.29712 11.9242 8.17577C11.9745 8.05443 12.0002 7.92432 12 7.79297V1C11.9998 0.734838 11.8944 0.480588 11.7069 0.293091C11.5194 0.105593 11.2652 0.000178969 11 0ZM4 3.5H8C8.13261 3.5 8.25979 3.55268 8.35355 3.64645C8.44732 3.74022 8.5 3.86739 8.5 4C8.5 4.13261 8.44732 4.25979 8.35355 4.35355C8.25979 4.44732 8.13261 4.5 8 4.5H4C3.86739 4.5 3.74022 4.44732 3.64645 4.35355C3.55268 4.25979 3.5 4.13261 3.5 4C3.5 3.86739 3.55268 3.74022 3.64645 3.64645C3.74022 3.55268 3.86739 3.5 4 3.5ZM6 8.5H4C3.86739 8.5 3.74022 8.44732 3.64645 8.35355C3.55268 8.25979 3.5 8.13261 3.5 8C3.5 7.86739 3.55268 7.74022 3.64645 7.64645C3.74022 7.55268 3.86739 7.5 4 7.5H6C6.13261 7.5 6.25979 7.55268 6.35355 7.64645C6.44732 7.74022 6.5 7.86739 6.5 8C6.5 8.13261 6.44732 8.25979 6.35355 8.35355C6.25979 8.44732 6.13261 8.5 6 8.5ZM4 6.5C3.86739 6.5 3.74022 6.44732 3.64645 6.35355C3.55268 6.25979 3.5 6.13261 3.5 6C3.5 5.86739 3.55268 5.74022 3.64645 5.64645C3.74022 5.55268 3.86739 5.5 4 5.5H8C8.13261 5.5 8.25979 5.55268 8.35355 5.64645C8.44732 5.74022 8.5 5.86739 8.5 6C8.5 6.13261 8.44732 6.25979 8.35355 6.35355C8.25979 6.44732 8.13261 6.5 8 6.5H4ZM8 10.793V7.99902H10.7939L8 10.793Z" fill="black"/>
</svg>
