<svg width="22" height="20" viewBox="0 0 22 20" fill="none" xmlns="http://www.w3.org/2000/svg">
<path d="M13.2303 1.37753L14.6997 4.36873C14.9621 4.8935 15.4344 5.26084 16.0116 5.31332L19.2652 5.78561C21.2593 6.10047 22.099 8.5669 20.6296 9.98378L18.2681 12.2928C17.8483 12.7126 17.6909 13.2898 17.7434 13.8671L18.3206 17.1207C18.688 19.1148 16.5364 20.6891 14.7522 19.6921L11.8135 18.1702C11.2887 17.9078 10.7114 17.9078 10.1867 18.1702L7.24794 19.6921C5.46371 20.6367 3.31215 19.1148 3.67949 17.1207L4.25674 13.8671C4.36169 13.2898 4.15178 12.7126 3.73197 12.2928L1.37049 9.98378C-0.098868 8.5669 0.740767 6.10047 2.7349 5.78561L5.98849 5.31332C6.56573 5.20836 7.03803 4.8935 7.30042 4.36873L8.76978 1.37753C9.71437 -0.459175 12.3382 -0.459175 13.2303 1.37753Z" fill="#ccc"/>
</svg>
