<svg width="20" height="14" viewBox="0 0 20 14" fill="none" xmlns="http://www.w3.org/2000/svg">
<path d="M18.3277 5.8116H16.0565C15.4281 5.8116 14.9208 6.31885 14.9208 6.94723C14.9208 7.57562 15.4281 8.08287 16.0565 8.08287H18.3277C18.9561 8.08287 19.4634 7.57562 19.4634 6.94723C19.4634 6.31885 18.9561 5.8116 18.3277 5.8116ZM18.3277 9.59705H16.0565C14.5953 9.59705 13.4067 8.40842 13.4067 6.94723C13.4067 5.48605 14.5953 4.29742 16.0565 4.29742H18.3277C18.5322 4.29742 18.7063 4.15357 18.7063 3.95672V3.29049C18.7063 1.76874 17.6918 0.504395 16.4199 0.504395H2.82254C1.57335 0.511965 0.536133 1.76874 0.536133 3.29806V10.6873C0.536133 12.2393 1.57335 13.4961 2.82254 13.4961H16.4199C17.6918 13.4961 18.729 12.2393 18.7063 10.6873V9.94531C18.7063 9.74089 18.5322 9.59705 18.3277 9.59705Z" fill="#1C1C1C"/>
</svg>
