<svg width="130" height="138" viewBox="0 0 130 138" fill="none" xmlns="http://www.w3.org/2000/svg">
<g clip-path="url(#clip0_1352_31824)">
<path d="M88.4725 134.274L90.1268 131.091H91.0759L88.8904 135.066V137.43H88.0545V135.066L85.869 131.091H86.8268L88.4725 134.274ZM96.6398 134.465C96.6398 135.086 96.5354 135.629 96.3264 136.094C96.1174 136.555 95.8214 136.908 95.4382 137.152C95.0551 137.395 94.6082 137.517 94.0973 137.517C93.5981 137.517 93.1555 137.395 92.7695 137.152C92.3835 136.905 92.0831 136.555 91.8683 136.102C91.6564 135.647 91.5476 135.12 91.5418 134.522V134.065C91.5418 133.455 91.6477 132.917 91.8596 132.45C92.0715 131.982 92.3704 131.625 92.7564 131.379C93.1453 131.129 93.5894 131.004 94.0886 131.004C94.5966 131.004 95.0435 131.128 95.4295 131.374C95.8185 131.618 96.1174 131.974 96.3264 132.441C96.5354 132.905 96.6398 133.447 96.6398 134.065V134.465ZM95.8083 134.056C95.8083 133.304 95.6574 132.728 95.3555 132.328C95.0537 131.924 94.6314 131.723 94.0886 131.723C93.5604 131.723 93.1439 131.924 92.8391 132.328C92.5373 132.728 92.382 133.286 92.3733 134V134.465C92.3733 135.194 92.5257 135.767 92.8304 136.185C93.1381 136.6 93.5604 136.808 94.0973 136.808C94.6372 136.808 95.0551 136.612 95.3512 136.22C95.6472 135.825 95.7996 135.261 95.8083 134.526V134.056ZM102.356 131.091V135.401C102.353 135.999 102.165 136.488 101.79 136.869C101.419 137.249 100.914 137.462 100.275 137.509L100.053 137.517C99.3594 137.517 98.8065 137.33 98.3944 136.956C97.9822 136.581 97.7732 136.066 97.7674 135.41V131.091H98.5946V135.384C98.5946 135.843 98.7209 136.2 98.9734 136.455C99.2259 136.707 99.5858 136.834 100.053 136.834C100.526 136.834 100.888 136.707 101.137 136.455C101.39 136.202 101.516 135.847 101.516 135.388V131.091H102.356ZM109.383 134.631H106.723V137.43H105.887V131.091H109.814V131.779H106.723V133.947H109.383V134.631ZM111.712 137.43H110.876V131.091H111.712V137.43ZM115.569 134.866H114.08V137.43H113.24V131.091H115.339C116.053 131.091 116.601 131.254 116.984 131.579C117.37 131.904 117.563 132.377 117.563 132.998C117.563 133.393 117.456 133.737 117.241 134.03C117.029 134.323 116.733 134.542 116.353 134.687L117.842 137.378V137.43H116.945L115.569 134.866ZM114.08 134.182H115.365C115.78 134.182 116.109 134.075 116.353 133.86C116.6 133.645 116.723 133.358 116.723 132.998C116.723 132.606 116.606 132.306 116.37 132.097C116.138 131.888 115.802 131.782 115.36 131.779H114.08V134.182ZM120.606 134.605C119.89 134.399 119.367 134.146 119.039 133.847C118.714 133.545 118.552 133.174 118.552 132.733C118.552 132.233 118.75 131.821 119.148 131.496C119.549 131.168 120.068 131.004 120.707 131.004C121.142 131.004 121.529 131.088 121.869 131.257C122.211 131.425 122.476 131.657 122.661 131.953C122.85 132.249 122.944 132.573 122.944 132.924H122.104C122.104 132.541 121.982 132.241 121.738 132.023C121.495 131.802 121.151 131.692 120.707 131.692C120.294 131.692 119.972 131.784 119.74 131.966C119.511 132.146 119.396 132.397 119.396 132.72C119.396 132.978 119.505 133.197 119.723 133.377C119.943 133.554 120.316 133.717 120.842 133.865C121.37 134.013 121.782 134.177 122.078 134.357C122.377 134.534 122.598 134.741 122.74 134.979C122.885 135.217 122.957 135.497 122.957 135.819C122.957 136.333 122.757 136.745 122.357 137.056C121.956 137.363 121.421 137.517 120.75 137.517C120.315 137.517 119.908 137.435 119.531 137.269C119.154 137.101 118.862 136.871 118.656 136.581C118.453 136.291 118.351 135.962 118.351 135.593H119.192C119.192 135.976 119.332 136.279 119.614 136.503C119.898 136.723 120.277 136.834 120.75 136.834C121.191 136.834 121.529 136.744 121.765 136.564C122 136.384 122.117 136.139 122.117 135.828C122.117 135.517 122.008 135.278 121.791 135.11C121.573 134.938 121.178 134.77 120.606 134.605ZM128.412 131.779H126.375V137.43H125.543V131.779H123.51V131.091H128.412V131.779Z" fill="#F47F59"/>
<path d="M97.3333 68.6973C96.5393 81.2157 85.004 88.9457 73.96 88.0843C69.6352 88.0024 70.6922 86.4088 70.6922 81.5459C70.6922 78.9518 70.1587 78.3511 71.8733 76.6681C73.5506 75.0123 74.8011 73.5651 77.3394 73.5651C82.4756 73.5651 83.4433 74.3421 83.4433 79.4805C83.4433 80.9004 83.1232 82.2459 82.555 83.4498C93.5072 81.9033 89.897 57.3058 73.0543 57.7502C59.7847 58.1002 53.9959 69.8714 53.9959 69.8714C52.0482 57.5615 67.7718 47.4633 83.3962 48.29C71.841 42.1958 54.1597 47.6396 49.5645 63.0946L51.0061 45.3831C57.0082 39.8848 65.695 37.2684 73.496 37.4347C98.3928 37.961 97.6955 63.0127 97.3333 68.6973Z" fill="#FCB960"/>
<path d="M99.8839 70.3482C98.7276 82.8766 88.2246 90.9864 75.1757 90.9144C70.3497 90.8226 65.0001 86.7391 65.0001 81.3127C65.0001 78.4183 66.1887 75.7945 68.1017 73.9154C69.9725 72.0685 72.5456 70.9291 75.3792 70.9291C81.1108 70.9291 85.7582 75.5785 85.7582 81.3127C85.7582 82.8965 85.4009 84.3983 84.7682 85.7412C97.2885 81.6901 96.822 55.3177 74.3643 55.6876C59.5538 55.9333 54.0058 70.383 54.0058 70.383C51.8322 56.6482 68.0099 43.0127 85.4456 43.9362C72.5555 37.137 54.6956 45.8649 49.5693 63.1073V63.0899H29.3224C28.8187 63.0899 32.5406 63.0725 32.0418 63.0527V25.5098H49.5693V43.2709C56.2662 37.137 65.2383 34.548 73.945 34.538C100.665 34.5058 101.058 57.6188 99.8839 70.3482Z" fill="#06545F"/>
<path d="M32.0391 -0.0976562C42.1253 1.60771 46.2194 10.3232 49.5641 22.0175H32.0391V-0.0976562Z" fill="#06545F"/>
<path d="M49.567 90.5038C40.771 90.5038 32.3571 79.9961 32.042 68.3887H49.567V90.5038Z" fill="#06545F"/>
<path d="M-0.0673828 127.678V109.582H2.98702V117.426H11.9666V109.582H15.021V127.678H11.9666V120.275H2.98702V127.678H-0.0673828Z" fill="#0C5F6A"/>
<path d="M35.1762 125.181C33.3475 126.969 31.0871 127.86 28.3975 127.86C25.7053 127.86 23.4474 126.966 21.6187 125.181C19.7901 123.394 18.877 121.17 18.877 118.504C18.877 115.838 19.7901 113.611 21.6187 111.824C23.4474 110.039 25.7078 109.146 28.3975 109.146C31.0896 109.146 33.3475 110.039 35.1762 111.824C37.0049 113.611 37.918 115.835 37.918 118.504C37.918 121.17 37.0049 123.394 35.1762 125.181ZM32.9381 113.855C31.705 112.579 30.1914 111.938 28.3975 111.938C26.6035 111.938 25.09 112.576 23.8568 113.855C22.6236 115.133 22.0058 116.679 22.0058 118.501C22.0058 120.323 22.6236 121.87 23.8568 123.148C25.09 124.427 26.6035 125.065 28.3975 125.065C30.1914 125.065 31.705 124.427 32.9381 123.148C34.1713 121.872 34.7891 120.323 34.7891 118.501C34.7891 116.679 34.1713 115.133 32.9381 113.855Z" fill="#0C5F6A"/>
<path d="M44.8288 127.678H41.7744V109.582H46.5359L51.9946 120.946L57.4534 109.582H62.1876V127.678H59.1332V113.543L52.8184 126.099H51.1113L44.8239 113.543V127.678H44.8288Z" fill="#0C5F6A"/>
<path d="M79.9154 109.583V112.458H70.2634V117.246H78.9328V119.965H70.2634V124.805H80.2256V127.68H67.209V109.583H79.9154Z" fill="#0C5F6A"/>
<path d="M86.6947 123.562L84.8834 127.678H81.623L89.5928 109.582H92.8531L100.823 127.678H97.5625L95.7512 123.562H86.6947ZM94.5081 120.74L91.223 113.285L87.9378 120.74H94.5081Z" fill="#0C5F6A"/>
<path d="M108.741 112.379V127.677H105.686V112.379H100.2V109.583H114.224V112.379H108.741Z" fill="#0C5F6A"/>
<path d="M123.01 111.965C122.122 111.965 121.392 112.146 120.824 112.509C120.256 112.871 119.971 113.42 119.971 114.152C119.971 114.887 120.256 115.445 120.824 115.835C121.392 116.225 122.606 116.642 124.459 117.091C126.313 117.54 127.71 118.171 128.65 118.98C129.59 119.792 130.059 120.986 130.059 122.565C130.059 124.143 129.464 125.424 128.273 126.41C127.082 127.393 125.521 127.884 123.588 127.884C120.76 127.884 118.249 126.909 116.058 124.96L117.973 122.656C119.802 124.245 121.7 125.037 123.665 125.037C124.648 125.037 125.429 124.826 126.007 124.402C126.586 123.98 126.873 123.419 126.873 122.719C126.873 122.019 126.603 121.475 126.06 121.088C125.516 120.698 124.581 120.345 123.251 120.025C121.923 119.707 120.913 119.412 120.224 119.146C119.534 118.878 118.921 118.528 118.385 118.099C117.316 117.287 116.78 116.046 116.78 114.37C116.78 112.697 117.388 111.407 118.603 110.5C119.819 109.594 121.325 109.14 123.119 109.14C124.275 109.14 125.422 109.331 126.561 109.711C127.7 110.091 128.682 110.627 129.511 111.315L127.881 113.618C127.345 113.134 126.62 112.737 125.707 112.427C124.799 112.121 123.898 111.965 123.01 111.965Z" fill="#0C5F6A"/>
</g>
<defs>
<clipPath id="clip0_1352_31824">
<rect width="130" height="138" fill="white"/>
</clipPath>
</defs>
</svg>
